<mxfile host="app.diagrams.net" modified="2021-12-14T00:26:07.929Z" agent="5.0 (Macintosh; Intel Mac OS X 10_15_7) AppleWebKit/537.36 (KHTML, like Gecko) Chrome/96.0.4664.93 Safari/537.36" etag="Tc0JlBitBOqxB37oxfda" version="15.9.1" type="github">
  <diagram id="s-H9imcBsQoQMVztOadJ" name="Page-1">
    <mxGraphModel dx="1754" dy="1957" grid="1" gridSize="10" guides="1" tooltips="1" connect="1" arrows="1" fold="1" page="1" pageScale="1" pageWidth="827" pageHeight="1169" math="0" shadow="0">
      <root>
        <mxCell id="0" />
        <mxCell id="1" parent="0" />
        <mxCell id="UhObj9y9h33Bc8mLhxrg-10" value="" style="shape=image;html=1;verticalAlign=top;verticalLabelPosition=bottom;labelBackgroundColor=#ffffff;imageAspect=0;aspect=fixed;image=https://cdn4.iconfinder.com/data/icons/user-interface-glyph-5/32/User-128.png;shadow=0;" vertex="1" parent="1">
          <mxGeometry x="120" y="130" width="50" height="50" as="geometry" />
        </mxCell>
        <mxCell id="UhObj9y9h33Bc8mLhxrg-12" value="" style="shape=image;verticalLabelPosition=bottom;labelBackgroundColor=#ffffff;verticalAlign=top;aspect=fixed;imageAspect=0;image=https://www.raychase.net/wp-content/uploads/2020/09/Facebook-Messenger-1.png;" vertex="1" parent="1">
          <mxGeometry x="954.73" y="115" width="823.33" height="380" as="geometry" />
        </mxCell>
        <mxCell id="UhObj9y9h33Bc8mLhxrg-13" value="User" style="shape=image;html=1;verticalAlign=top;verticalLabelPosition=bottom;labelBackgroundColor=#ffffff;imageAspect=0;aspect=fixed;image=https://cdn4.iconfinder.com/data/icons/user-interface-glyph-5/32/User-128.png;shadow=0;" vertex="1" parent="1">
          <mxGeometry x="120" y="280" width="50" height="50" as="geometry" />
        </mxCell>
        <mxCell id="UhObj9y9h33Bc8mLhxrg-15" value="Message Database" style="shape=image;html=1;verticalAlign=top;verticalLabelPosition=bottom;labelBackgroundColor=#ffffff;imageAspect=0;aspect=fixed;image=https://cdn0.iconfinder.com/data/icons/font-awesome-solid-vol-1/512/database-128.png;shadow=0;" vertex="1" parent="1">
          <mxGeometry x="862" y="130" width="60" height="60" as="geometry" />
        </mxCell>
        <mxCell id="UhObj9y9h33Bc8mLhxrg-16" value="Trending Service" style="shape=image;html=1;verticalAlign=top;verticalLabelPosition=bottom;labelBackgroundColor=#ffffff;imageAspect=0;aspect=fixed;image=https://cdn1.iconfinder.com/data/icons/material-device/20/storage-128.png;shadow=0;" vertex="1" parent="1">
          <mxGeometry x="650" y="275" width="60" height="60" as="geometry" />
        </mxCell>
        <mxCell id="UhObj9y9h33Bc8mLhxrg-29" value="" style="edgeStyle=orthogonalEdgeStyle;rounded=0;html=1;jettySize=auto;orthogonalLoop=1;plain-blue;endArrow=none;endFill=0;strokeWidth=4;strokeColor=#000000;entryX=0;entryY=0.5;entryDx=0;entryDy=0;entryPerimeter=0;" edge="1" parent="1">
          <mxGeometry x="80" y="543.5" as="geometry">
            <mxPoint x="240" y="543.5" as="targetPoint" />
            <mxPoint x="80" y="543.5" as="sourcePoint" />
          </mxGeometry>
        </mxCell>
        <mxCell id="UhObj9y9h33Bc8mLhxrg-30" value="Web Server" style="sketch=0;pointerEvents=1;shadow=0;dashed=0;html=1;strokeColor=none;labelPosition=center;verticalLabelPosition=bottom;verticalAlign=top;align=center;fillColor=#080808;shape=mxgraph.mscae.oms.dashboard;direction=east;" vertex="1" parent="1">
          <mxGeometry x="400" y="280" width="60" height="50" as="geometry" />
        </mxCell>
        <mxCell id="UhObj9y9h33Bc8mLhxrg-35" value="Message Cache" style="shape=image;html=1;verticalAlign=top;verticalLabelPosition=bottom;labelBackgroundColor=#ffffff;imageAspect=0;aspect=fixed;image=https://cdn0.iconfinder.com/data/icons/font-awesome-solid-vol-1/512/database-128.png;shadow=0;" vertex="1" parent="1">
          <mxGeometry x="760" y="-10" width="60" height="60" as="geometry" />
        </mxCell>
        <mxCell id="UhObj9y9h33Bc8mLhxrg-48" value="Searching Service" style="shape=image;html=1;verticalAlign=top;verticalLabelPosition=bottom;labelBackgroundColor=#ffffff;imageAspect=0;aspect=fixed;image=https://cdn1.iconfinder.com/data/icons/material-device/20/storage-128.png;shadow=0;" vertex="1" parent="1">
          <mxGeometry x="650" y="130" width="60" height="60" as="geometry" />
        </mxCell>
        <mxCell id="UhObj9y9h33Bc8mLhxrg-54" value="" style="endArrow=none;dashed=1;html=1;rounded=0;fillColor=#000000;strokeColor=#000000;shadow=0;" edge="1" parent="1">
          <mxGeometry width="50" height="50" relative="1" as="geometry">
            <mxPoint x="290" y="460" as="sourcePoint" />
            <mxPoint x="290" y="100" as="targetPoint" />
          </mxGeometry>
        </mxCell>
        <mxCell id="UhObj9y9h33Bc8mLhxrg-56" value="" style="endArrow=classic;html=1;rounded=0;shadow=0;strokeColor=#000000;fillColor=#000000;shape=flexArrow;endWidth=12.040816326530614;endSize=3.5714285714285716;width=2.142857142857143;" edge="1" parent="1">
          <mxGeometry width="50" height="50" relative="1" as="geometry">
            <mxPoint x="210" y="304.47" as="sourcePoint" />
            <mxPoint x="370" y="304.47" as="targetPoint" />
          </mxGeometry>
        </mxCell>
        <mxCell id="UhObj9y9h33Bc8mLhxrg-57" value="" style="endArrow=classic;html=1;rounded=0;shadow=0;strokeColor=#000000;fillColor=#000000;shape=flexArrow;endWidth=12.040816326530614;endSize=3.5714285714285716;width=2.142857142857143;startArrow=none;" edge="1" parent="1" source="UhObj9y9h33Bc8mLhxrg-74">
          <mxGeometry width="50" height="50" relative="1" as="geometry">
            <mxPoint x="630" y="304.47" as="sourcePoint" />
            <mxPoint x="480" y="304.47" as="targetPoint" />
          </mxGeometry>
        </mxCell>
        <mxCell id="UhObj9y9h33Bc8mLhxrg-58" value="" style="endArrow=classic;html=1;rounded=0;shadow=0;strokeColor=#000000;fillColor=#000000;shape=flexArrow;endWidth=12.040816326530614;endSize=3.5714285714285716;width=2.142857142857143;" edge="1" parent="1">
          <mxGeometry width="50" height="50" relative="1" as="geometry">
            <mxPoint x="680" y="120" as="sourcePoint" />
            <mxPoint x="740" y="60" as="targetPoint" />
          </mxGeometry>
        </mxCell>
        <mxCell id="UhObj9y9h33Bc8mLhxrg-61" value="" style="endArrow=classic;html=1;rounded=0;shadow=0;strokeColor=#000000;fillColor=#000000;shape=flexArrow;endWidth=12.040816326530614;endSize=3.5714285714285716;width=2.142857142857143;" edge="1" parent="1">
          <mxGeometry width="50" height="50" relative="1" as="geometry">
            <mxPoint x="730" y="160" as="sourcePoint" />
            <mxPoint x="840" y="160" as="targetPoint" />
          </mxGeometry>
        </mxCell>
        <mxCell id="UhObj9y9h33Bc8mLhxrg-62" value="" style="endArrow=classic;html=1;rounded=0;shadow=0;strokeColor=#000000;fillColor=#000000;shape=flexArrow;endWidth=12.040816326530614;endSize=3.5714285714285716;width=2.142857142857143;" edge="1" parent="1">
          <mxGeometry width="50" height="50" relative="1" as="geometry">
            <mxPoint x="840" y="60" as="sourcePoint" />
            <mxPoint x="890" y="120" as="targetPoint" />
          </mxGeometry>
        </mxCell>
        <mxCell id="UhObj9y9h33Bc8mLhxrg-63" value="" style="shape=image;verticalLabelPosition=bottom;labelBackgroundColor=#ffffff;verticalAlign=top;aspect=fixed;imageAspect=0;image=data:image/png,iVBORw0KGgoAAAANSUhEUgAAAggAAAFuCAYAAADkueC5AAAAAXNSR0IArs4c6QAAIABJREFUeF7snQfUPEWx9ofver2CYMSAIFlyBokqwQCCgmS9ZBUVBEEkCCggV1RQUJCggAFBVIKI5CxBRBAQUJGkBAmCGfMNfOfX+rzWv5nQMzuzO7tbe86efd/dnpnup6urn66qrp7tqaeeeirzlyPgCDgCjoAj4Ag4AgaB2ZwguDw4Ao6AI+AIOAKOQIyAEwSXCUfAEXAEHAFHwBF4GgJOEFwoHAFHwBFwBBwBR8AJgsuAI+AIOAKOgCPgCFQj4BaEaoy8hCPgCDgCjoAjMHUIOEGYui73BjsCjoAj4Ag4AtUIOEGoxshLOAKOgCPgCDgCU4eAE4Sp63JvsCPgCDgCjoAjUI2AE4RqjLyEI+AIOAKOgCMwdQg4QZi6LvcGOwKOgCPgCDgC1Qg4QajGyEs4Ao6AI+AIOAJTh4AThKnrcm+wI+AIOAKOgCNQjYAThGqMvIQj4Ag4Ao6AIzB1CDhBmLou9wY7Ao6AI+AIOALVCDhBqMbISzgCjoAj4Ag4AlOHgBOEqetyb7Aj4Ag4Ao6AI1CNgBOEaoy8hCPgCDgCjoAjMHUIOEGYui73BjsCjoAj4Ag4AtUIOEGoxshLOAKOgCPgCDgCU4eAE4Sp63JvsCPgCDgCjoAjUI2AE4RqjLyEI+AIOAKOgCMwdQg4QZi6LvcGOwKOgCPgCDgC1Qg4QajGyEs4Ao6AI+AIOAJTh4AThKnrcm+wI+AIOAKOgCNQjYAThGqMvIQj4Ag4Ao6AIzB1CDhBmLou9wY7Ao6AI+AIOALVCDhBqMbISzgCjoAj4Ag4AlOHgBOEqetyb7Aj4Ag4Ao6AI1CNgBOEaoy8hCPgCDgCjoAjMHUIOEGYui73BjsCjoAj4Ag4AtUIOEGoxshLOAKOgCPgCDgCU4eAE4Sp63JvsCPgCDgCjoAjUI2AE4RqjLyEI+AIOAKOgCMwdQg4QZi6LvcGOwKOgCPgCDgC1Qg4QajGyEs4Ao6AI+AIOAJTh4AThKnrcm+wI+AIOAKOgCNQjYAThGqMvIQj4Ag4Ao6AIzB1CDhBmLou9wY7Ao6AI+AIOALVCDhBqMbISzgCjoAj4Ag4AlOHgBOEqetyb7Aj4Ag4Ao6AI1CNgBOEaoy8hCPgCDgCjoAjMHUIOEGYui73BjsCjoAj4Ag4AtUIOEGoxshLOAKOgCPgCDgCU4eAE4Sp63JvsCPgCDgCjoAjUI2AE4RqjLyEI+AIOAKOgCMwdQg4QZi6LvcGOwKOgCPgCDgC1Qg4QajGyEs4Ao6AI+AIOAJTh4AThKnrcm+wI+AIOAKOgCNQjYAThGqMvIQj4Ag4Ao6AIzB1CDhBmLou9wY7Ao6AI+AIOALVCDhBqMbISzgCjoAj4Ag4AlOHgBOEqetyb7Aj4Ag4Ao6AI1CNgBOEaoy8hCPgCDgCjoAjMHUIOEGYui73BjsC/UbgqaeemqWCs802W78r7LVzBCYUAScIE9qx3qzxQYAJkTcToSbD//u//8v+3//7f7M0QuU0gfI75fmf8v/2b/8Wytv7laFgJ2I9V/fSdXZyVnmexYvn6ZkqrzL2PpSJ76P///d//ze00z4/r85OEsZHnr2mk4OAE4TJ6UtvyZghEE/Q//M//5MxYWoy1ORvJ0dNpv/93/8dJudnPOMZT2s19xDh0DPyJlgRCW5gfy8iC5QTaeFa/rYkJiYBf//73wNxedaznjVDYizJofwzn/nMUH/KWeKj+tvGOUkYMwH36o49Ak4Qxr4LvQF1ECibMOvcp82y1IlJnUmSN39DFpj8+Z+/NbGqnCUSuka//eUvfwnX8eK7P/3pTzOTb1xvyv3tb3/L/vrXv4ZreCYT+n/8x3+Ea61lADLA9//+7/8eyAn/M8GLJPAb/1sriEiFrA0iFTyHcjybv3U/EaCYfMQkpk38y+7l7o5hIe3P6SMCThD62Ctep84QiM3vZavSohW2Kld0LRMrK3xW0Hwy+fK33kz4/M3k+Oc//zlM4EzqevMd1+h7/qc831FG9+M+3INnyPqg76w7gPJ5L0uW5AYQ2SjqAAgAb67VpC8cIBb8xoQPiRCZ4P/ZZ589EI855phjlk++4zfez372s7M555wzfHIfXa97iYDYe+t51uqR5xaRNSav76y1whKCPCvGqIhKZwPCb+wIlCDgBMHFY6oQsJO+VfZ2slQZa/bWBKrJmElXk7gmdCZr3r/5zW+yJ598Mvv9738fPn/961+Hv//whz+ESZ/37373u+yPf/xj+I7JX26BuH7xCrZsoh9mR3Zl7mfCF5ngE8Lw3Oc+N5trrrnC53Oe85yZv/n/hS98YfiOclwL4aCs7gGp4G0tE3mTvMVZ1he1MY4FcZIwTEnzZ40SAScIo0Tfnz10BGzwHBMAyt9+x0StFToTPRO7Jncm89/+9rfhf30y+etviAIrfP63E74CDln5yg2gSUYrW0sMUkiBBa5u+TZA74ogqG6KcSgiRPpd1gcRB8jB85///EAS9N2LXvSi7HnPe14gGHzy/Qte8ILw/9xzzz0THBpbD2wfxfXouv1t9JHfwxEYFAEnCIMi6NcPDYFB4wdEBLRCxBrw+OOPh/cvf/nL7Fe/+lX4+5FHHsmeeOKJsLpnlS9LgEz+MutbCwMgyG8u370i/DH7M6Hwv4iD9bHH96kL6KQQhLgduCYUn6HJOq+twlIxHArcFNa4NSAMWBn0hhzwfvGLXxysEHzOM8884RNCAYHgOttPNni0LkEYVHbryoSXdwTaQMAJQhso+j06RSBvZWdXmtbka1fiTMj8DxFgkmfyv+uuuwIBuOeee7JHH300e+yxxwIRwBUgt4F8/kVb83hebIZO8XtznZ0o4kmm6UTf9LpBOq3uBJnyLNuOol0XRfexMQayClXdj3spPgJLhEgExID/F1544fBebLHFsgUWWCB76UtfGogDbgxInwggsiACWCaXeXXvAscUrL2MI5CCgBOEFJS8zMgQkJK3n3mKn+9Q2rxZ6d9///3Zj3/84+zee+8NZABSgMsAi4CCAyEE2g1Qpajj2AABUhXkWFSu7gRY1gGTQhBGJmQFD1YAJUGTEAYsDvPNN1+24IILZosuumi21FJLZa94xSuCy0KWBm3plEUpT25s31fJXd8w8fpMFwJOEKarv8eutXkEwW7NY7WPz/++++7L7rjjjuzOO+/MfvaznwWLgN0FABmw91L8gV3VV03CeROxE4SxE6mkCsckVP2M1cDuvHjZy16WvfzlLw9WhiWXXDJbZJFFspe85CUzOzLsts88sugEIak7vNCIEBhbgsAAnpTBpVWG9XGOSB568Vj1rf3U9j0IAVaAm2++Obvllluy7373u8FtgJuAF+QBlwLXajuecgooQBCcCRiUzzql0XUsCEUr+qqVY1NLQNPrUtpdVGZSxl4VKbS/K7bBypNcC8gSMoWlAbKw4oorZq997WuDlYFASJEK7YaRbE8DjnXlbNziNapcWeM8V40lQZA5mQEZv/hNQWKpQUWjGKQybRetVEZRp7oDue3yGkhggyJlRwBWAGIFsArcdttt2bXXXhtcB+weKNoaKOyqJs62MK56jsWprWfae9Z5ftxnTeszyDPblps+3U/bKWWhYovlSiutlK266qrZmmuuGWIZIAzstIBMUE7vcZsY28ad9iu2RySMZ8TpvNt+bt79quTbBhbbfrP9P4x6dv2MsSQIWinmTQRxx1atyqsEoe0OULY6nstKVyuQvLZIcbRdh77cz67K1Q/kBCCY8MEHH8x+9KMfZbfeemuwFkAQiB3Qql/KJG9l7wQhvYedIKRj1bQkkwaLGawIxDCsttpqwcKAdQHCMO+884bfrdur6bPG+TprSdX41k4WGxTadRtTxoQlM3mLVMWkpNyr6/YMcv+xJAh0DhMJwqPodEWhM+kWJUWxnSUrhPVNDwJk6rXUD9M3EdO82VrFJyuNsolt3AUtDx+5A+gvLAXEEEAIsBRACn7605+GftZuBDAQc+dvkYoiUlhF/trCtOo5bkFIHR2TW85aCpB3yMJCCy2UrbDCCtnyyy+frbzyytnSSy8dtly2JZfjhqbGNpZB9PovfvGLoBdwK2ox1XWb7KKMPooPGtPzVVe7QFGiLna6kG+D4Fa7AIz7tUhvdd3GOvfvNUGwq0Tru4MMMJnceOONISjtoYceCn5pWKYEKTbbAUq82qSTmYCG+dKWKLZSEf3M6oHAJsyPKAkECwUiExufvIoEdZh1b/osa4JT+/kOi8DDDz+c3XDDDcF18MMf/jBYCognoB95xVYU24d2wMk0qWtU17LJuy1F7AShqWRMx3VWzqyVwOoCdkNgVUAPrL322sGywAJI4z/vUK5JQI/2gQP6jTwkLA5+8IMfZHfffXfQ6+gCnS2Sl9GySwyUgTPvGfFcQr9iBYIkQPLYErvssssGa9ESSywxy3kjWtzkuZTa0klt4dJrgqCjYGmsJnNWmOecc04IToMcIDyaTEQCJEjxKrOOIm8L4LL7SFmQvIWtU/gqN91002zdddcNwkY7pBjGgW0WtVWTN+2RhYeth1deeWV28cUXh5iCBx54IPRx0wFS1rdFvzV9VtzOOnLV1jNtHeo8P6570/oM8sxhjK1xfAZjngUDrgeIwiabbBL0ArEK9kjscWybrTNWWyZS9DtvFnff+973sjPPPDMsElg0YEGwh4UNmxwMgrEOHiPOhO2wr3nNa4JeX2655WZcSdZFES+Cmo7JQepcdG1vCQIAIiBi0eSu/9KXvpR94QtfCP5pVv4y3yhq3SqtPoFc1nHyVcliQCa3zTbbLPv4xz8+oxhEkOKVSBcC0eSeVeRFBIFyrBLOOOOM7PTTTw9bE+lXuQ7i4NI6dXGCUAetf5VtOk6cIDTDu1AR/zPttyZC7YbYfPPNs3e9610hqLFpX7Vb08HvptU3Oo8F3oEHHhgWfegGdLl2GNkTSwd56jBlVYtS9RXPxtWAlXi33XbL3vrWt4b/rU6MyV+f+rn3BAEgIQSf+9znslNOOSWYnKxZyjKxtlZHgwhj3WslHArC4X8sCqwgDjvssGyZZZaZMcFxbwlgnxh1PAD5X/VjkOsUw2uuuSb7/Oc/H+IMSGWsFMRlWQlT8RwmQeBZGsSxuTCvvlZZxCTPmhlTFZnuUaRY7O+qT7xKsd+XTVr6LTapisypzvb3PP9saj/m1asKF2sprPucPpW3soH/mxe6YPHFF8922WWXbIMNNgguSPWllcM+tSOvLrauOuUUa8HBBx8ctisTa4DcSK6UDbONdlXJTxvPsONEeloLHywKkB7izd72trdlb3/720PuDFmQ3YLQsAcQFnxRn/rUp7JvfvObM3vdpYzGXTHYgR4PdgTqDW94Q3booYcG0xRCVhTJO2rGaScJuhoFoKBLVgRYCr7xjW9kp556aiB7tCNv0I66HWViqrrFsQ423a7tQyujcepfKQZZj3Q8Mp/6Tu4lPmWy1N+U03HIxLIgK3ynN/fnb/pALqr495S22slaWSr5jrYROKaYH8apftdhV8SXsDrUSZXKQaFPTQYi+/yv+wk7bWO1E0csIyKilqDk9VWKChql/JVZ4eg7ki9tvPHG2bvf/e4Q3Ehgs7YDp7RtlGXUf5JtXAyQgoMOOii7/vrrZ+IsLLEcZV8MglURGZGup9/e+c53ZnvssUc490Nj25KKQZ7f9rW9tiAQxXr00Udnxx13XAhosysxKaq2ARnm/coGAb+xethwww2zT3ziE4FxyocfByyOejDFq0vqKf8iuxE+/elPh1gDJhXrV4yxHnU7yvpeA9kmV4rlkf8pp4lZEzX9KAWBeZHVIZM65XRoECtDzMiURYkw8fO3/aQ81/KpVYmeJZmwddLkK+Vjt16VYS0lZ3eMFPnA1fciTrqGZ2ulyOpQk78yXOoTiyByQRkdioVPmu9Ija178D9vnocMQT4UwMf/EFF7SJYWD5RXjJLaH8tr22O+yYo19RoCGD/0oQ8FC6NIX18nF+louYo1dghEfu973xuCk+0uMmt2V5va7puu71fVj8glY//DH/5wtvPOO4eARhsz1zcd2FuCgGL42te+Flgmq05rholXrF13elf3rxIG2okA4buCcTKJWJO0XeF1VceU+1rmL6WAAr/uuuuyI488MqwSIHhVg6cv7clrM3VnEsY3zCStiZ4JnDf/syuFSZ3TAPlbRwvTh/yvt03VywTPy2Z51GSflydDddMkF7ua6At9J4KAtSGP2BT1rZ1cVUaTq/63gaeatKt22tgVr52k7fU8R3WFEOgALUiDjtWGVOi0TR3FDeHQoVs6dtt+6tyNVBlMkfuiMk2eUecadjsxway//vpBFvv+sknhODX1v/7rv7Kvf/3rgeTJSkQbuiIIdbAdFpYcAoZlfKONNpqx8sWuhmHVpew5vSMIdCaKDVKwzTbbhC0vsTLpA3Bt1KGKIGhFig/y8MMPz173utcFYepT/IEGtl1Jooxvuumm4F8kOlnHHNstjnn4VeGRirkmOJEVXWczsllLhnDWrhmRALYqscJnXzOfTPRkwWOFz2pfJIDf+JvvRRzy2pKnAKzyspM+ZW2QlsrZNsRkURNr1d5tW7cqK5bF3BJz/pZVQRN8TCLi/orbyu95VkE73vWMuJwlSrIoQCJ4k2UT4kAALKSB4DfeEAy+483/+l0xMrZ+eh6flrTYNrUlr7YtZaRNdaF/2ULH+EIn2BwqqWNk2OVEVs8+++xgASE7qoLLY9LZdt36RBCkA7AiYA0iJmv++ecPMkY925apQbHsHUFAyTGoTz755MCSmWwm9ZVi5qUMqwQimQ844ICwKkVBjCL9aFE/xEFpt99+e4hMvuKKKwLZy1vldkkQuHfsmwZHVtIoJa1U+B8/oA7cYfKHDBBMxPdM/JYMyORfhX2TQV73mjxLUuo4yZsIU68dtFyZsq5S5HUxUl3pc1ki0C0QA1keIBOsapmw+OT4b07+JJsnbg+RGBtIK9my8SiD4hKT2aLxYYkLeRNwwZLGuc95EtSvuIzR6WxnVFbUPJLYBpZ5xLbt+w5yP/oRXUOMGXElvCC66KQ+vXpHEACJPfJbbLFFyKRX5rPuE5BN6lKk8LQC1u8oJLKt4ctHGShHQpNndnGNCAL1RAF/8IMfDNsYMftSV/mK9ey8laRVFG3U0Qb7UQcmeyZ+3lgGCPSCGPC//P+QAciY3nYCqDMhN5nI6l5Tpz4xntNGEKzlQ1YsTajoF4gAb6wPyCykAWsDuTlI1vPzn/88fEIgIBpK3MN9JfttyGwRQcqz+Chgdauttgq7nYhR6utL8UgXXnhhWORwuFrcVmv1a7sdVcSz7eel3g+9RCIlAvC1O6VvRK9XBAGmj7nvoosuyrbffvtZAlhSQR+ncmUEQROmzIowS4IV3/GOdwSTon3VnVzaxkimbZQWwYjETKBM8QErTXIRo29rspKbQOZ1LAAcv0uiEnaBkKkOFwEuAGIGIANKQCMTuUx88SC1Ju+usK57XycIaVIcu2343xJWe6pn7E5AF+n0ULku2JEDYSAKn2A7mcq1k2PQySjv+jyCoKBZSC7WOrbO1ZWhNAQHL4V+gHh98pOfDG/lsIl12KDYFdW0q/sOjkwWXJXEY6yzzjq9sx6EOeipHqGnnNuYoT772c8+TeDrVFVH/dosi210aJv3KBvQ1pTIM2n7dtttFwaY3AxxmTbrVude6hcGPpG5MGJFnA9iGZD1AQWjiV/KXSsO+hligntg9dVXD29Mr6SqxVLAZC+XjF2lFGFf5QdMkcG+Kuo6fTqKsinYNqlXiisv5b4iktq2hzWB1TBxUldddVVIEyzCYFMky9KgcdxEPvKuESlmcsFiBwGWhaRPCwjqAk777LNPdt555w19cdOVXNk5pmmf4rbca6+9sg984APBcukWhJKRyASDb3DXXXfNzjrrrMYEQROLVgSxiTtFGQyjTB2hoiwBSWSSZOKzW2NU1zr3a7N9WpURmMj2JWIQYv9s07rRl8quxkTPoGRQERRIEikiurEQEBWMT095AbqK00hRNk3b2mafjOO9UrBt0q62CIKeLXlHNtFZrI7RMVgZ7r///nDQGKQBC4OCIykjgtpEPsqsjQQxs1uIvCkiuHlWhybYtXUNFpf3ve99IUX+sMlLF3LFRC73tz0zoy5eyBDu9JNOOmnm+O+69+iyfK8sCEwq5OHeeuuts+9///tP81OldjQdZoOK+hzHkKosmPA49IPVOZOhDfxLvUdXgiSsIS9sSyXQK341qaP6W8GE5KmHFBCHsdZaa4U89drVITLIZ5NndYWN3zcdgdTxnX7Hf5RsmyDIpSZZiydlxTVgTWBixLrAeSMEPsr11mYbIMasQvfff/9w2xjHPowHDmPDukjiu7bciqkYdiFXdo5R3pfU+sQEiTiEc889N1hB+9BXs9SvTy4GKgYDf9Ob3hQCFONVaFlHC1gNVnuOeJOO6+oau4qoMmfbOkAQyKZ2ySWXhMNchs3Cy/CQwmR/81FHHRVWUnmvFOG3ypY4AcUQcOAJ7gORI8ppYMpaoG2KKc/pqn/9voMh0IUyb5sgyGUgGRRZ1xH0fC855je+16ml5ATBwnDvvfeG3RR1dkIUtQPTNDEIWBFsMiz1RB/GAwez7bDDDgEH9XFVvYSvsGwqG02vq5JkVv+yJlW1pehe6C6O+Wbhh1u0aodUVZ3a/r1XFgTAJv/Bm9/85sC4UzvWDkbYNKchMmjs9Rq0bQNY537UgeRBtFG5AVInegSQBDyXX355EKjU6+rUr2lZRXITLHXMMceEKO+iV9lA4jfuRd+RKY4kImussUZoLy4Fq0yr7tO0LX6dI1CFgPRKkX6yukZWBtxkjHlic9BtZBG87LLLAuFP1XNF9WIxhNWVjLOMnTgfRTxWmk5mVbiU/S6CwBbS1PZSTgs9FgastJvUPfV5ddqnfuWTjJ/oddzjeTEgZfelr3CRsvWTnVV9y3HTW4Jwxx13JAuDQOXzla98ZTjYiYCdvr1QEhy6cumll4ZBUtdPT2S+CEKTgdIVHmoLBIF92WW5K8rqrYQ0uBSIt8AkiTsBYhS7DtoiCHnKo0/YdtVnft/mCNQhCDxF7i/+xsrFFkoSiHE+CRHsg05gEA/82Og9pfUuW0CMQr6bEATaIOvglltuGQK0m0ygdaw0KVIhXaS6EIDJzi1ir/RK7VPuxRZ2JwgJyFsLQh2CAMgyzbzqVa/KTjvttFkmFQ2IUQwM22wIAmY2sokpcNIKUlX9+k4Q2OPM7pNBLAiY7VCibOUkRwHbE3EvrLfeesG1QhCilG4TK0V8jROEhIHpRWZBoA5BsBYE/O/44lkgKCaB4MVBX0xUHBFPoBv5PmJr6bhaEIQdVhH0JouPJgShbeuxtR7Qd3feeWe20047heyxWuTU6VMIAkH5WEmq5oA6922jbO8sCCQn2WSTTWZhY1UNtQSB4DWYOatOveLVZ9X92v5dCsUSBG2/rCMQfScIBEkde+yxTyMIcRvL2LXNgKgVBG6j+eabLwRp4nLASsRgQnFgbYBU8AwlZLHZyMrwtYo+r1ydvmlbZvx+/UMAUq+Dh6xlgBWqXAjIL3+TKRBLGu5EYg6YPDjemMBFEjERl5D3Sl15xhaCTTfdNOxw0nktZQuPUch1XgxCVQ8rhwqLBQgCuqUJQah6TpPfwVd1+clPfhLqRz/XDViUBYFFIy6GUfRNWft7RxAIUnzLW97SiCDQaVgQzjjjjKcRhCZC0NY1liCQAAq2qJ0VdQRiHAgCflD8rLEC0/9NFKCUMUQAUoD7CIIAUcAVAXEgAZJyHsTnVTBo83B2gtCWhE/PfXQ+BjKF/OiQLciDjrgmkRIuBGIMCEaEEOh47DKkBhkbEATS05N4p+o+dXROWz07CEFg3O+4447Z8ccf3yuCIBxFENjamhdbVjoB/9PFAEFAp/Xt1SuCADgMLicI+WLSV4JAbVGUWBAgCGUuhirlVTRAGIy6Vj5diACrCwjDCiusEHY5QBoWWWSR8D2WBH3mJSCR6ZFPqzT74pLqm7KY5vrIOqUVosgAO3Y4WZLJga3ZvG12RawLWmlWpWUeZGzIxeAEYThSanXGoASBIEVtXx9O7dOf0kuCABsmK1nqSy4GtyCkItZ+ua4JAjVWchKZ90QU9BtkgDdECnMdA4+T0nBP4HLC/MrWSZ25EBODGBURBZWzJELRyraMrh/FCq39Hh2fO8YxAdYMbUllnhXLykDcl/yGu4BzGnQ6JImPIACcF8NihskBN4LOZxAJsGTAktsyEjAMgjAq2XQLQv54oj/QU+ecc07QWX17OUEYQo9MuothGBaElG7KSx7FdwRukVSJN3uNMeVxuA1bJ7E+QBj4GzdF7OOk75TqWT5RvtMplXnui1gJj0opp2A2CWWsJYj2yPyv6PX4+Ou4vFInQwZ05gI5CthtQHIjTiEkKyLR6vwNSVAMAX1rk7JZPIv6vYgItEUQ+tinThCcILQil7BytyC4i2EQYSqLN8DtgCUC0kDmMqwNpK7m0BusDARE2k+2jfEm9kETTd6KNc9F4RaFQXox/Vqt1u0Eay0Htt9wDXDiqD3uGRcBVgE+eUMCyAbK/naIAsGG9K89X0GuhthtUCYHeRYM20onCLP2uQj5pMcguAUhfawHs50ThPEkCBzzTCBRFzEINUToaUWt0oYgsFKUm0I+YkgDv2FFgDxACuSWgDTg27XkAXKB1YHvsEDEOyfiicKtCIP04KzXxkRAVh5ZBkQAmOAhAgQJ8mblz8SPZUAEQWX4Tvk7ZEWiz+QesFYHWY3yYgqcIOT3s1sQ3ILQigZwglAsSJjDyeu+2GKLzQTVxavZpquQ1M7LM5/LpLvffvuFrUjxFi57Tdf1S20H5YomcSl+TRCsZLSDgjwMHBMNkcCqwN8QCqwQxDhAGrBKQCggEYp74HtLJDTh6BnxSjKVrwGZAAAgAElEQVT2net/TV4xydH2O+rJKpn7avun7k2ZuvjbgM24rvLR61mssHlDlqzp3U6oRe21MR3CRrlNlMobuWIil/mfvznbgMmfiZ5PJnkmf34jdgAs2EEAadWndiLEsmLjEWLrj+pkv88rb/GtSwrr9o2tC4uqE088MbjMmvRznXFTVdbKjMYZBIHTaLHUpL6mxYLA+TKccon7s28vj0EYQo+0EYPAPUgcxKEeJAyS8sxbsTRVNHWhsJMciviQQw4JFoRxIQhV7Y0VvJ0QrBJkAmQyFpGARNgtl/zNd7I4YJ2AYEAYIBb8z9/6XiSEiVY7Mbi/7mknX54pgsb3NlGLJmN9z2/ay1/V9vh3rpXMqd9tQB7lhY/KaaJSfbUTAPlAXngzmTORkzCIT/s3/n++12/EB/C7joWHJHEv+6lnlu0YKCICMdnO6/+YOOSRjDxsU8hC03HLvTfeeOPeZJCNyRSyc/XVV4dkQrhvUl/TQhDYgQVB4DC6vr2cIAyhR9ogCFSTleq2224bBEk5yvPMrV03KY+UoKgvuuiicHodir9oJdVUCXbdptT7562O7ERszdJMVvJbK2WsJnkRCk3e+t2W064MnRMPWYA88D3l+Iz/p4wSSNnz5XXfopwQVe1nElZyL5n0+Z8VuyZoZEBvvmci53/K639W8iIH/CbCokBB+8nvsh7wDBGMPEtGnlwVTcqTSBBWWWWVcGATLq94gq7q2zZ/17Mtxsg8mSPJhAghTH1NA0FgPOo0R5vcLxWjrss5QegaYXP8KkquaaIkKUVWmSjeuuc4tNXMIkVM/TSBxM/qq4uhCSbxpGPJQapp167o+ZtJsihffBF2EAxedqVsTfn8pufQZ3Y1XzcbnSVFMUGSuV5WAhswaPf/67q8yYtydueBrCIQBIuVdf2o7/KOcq9arccEQf/bT+FnZSTFfVBEgPPqZDGRBaaJTHKNCGBewGbTeza5zpI3tU8kr+7iYBoIAm0kuR/bHHFL9u3lBGEIPdKWBaFo5TOocmkCQd7ElaIc6yqJJnUbxjVlk1BKG7k+tZxtT9XklycLZc9JuV8enk2vi+9VNulWPSO2ntXt9yr8q55f9Lz4vkX30WRalUAptV155FV1qWpr6jNSysX1aPrsaSAIYEVyN1zHuBv79nKCMIQecYIw2wzKqcoidQIdQve1+oi61pQ8pV9VoRjjLghCVR26+H1QUlZGTtokQXUJQrzSboqdE4SmyNW/zi7WBs2k6AShBv6+i6EYrEm3IOAz5yXfcw2xGZuiThD601VVZLVrCwJI2ABXxXI0RcgJQlPk6l/nBKE+Zq1c4QShPkGoUnStdEx0k1QXQ56SzasvEf7EZxDd/93vfjecfKd8Ctwj1b/fRVvbvGcT82tdK0KqBaHpBNgmHqO8V9W4aYpP3n2VrAk55m/cCgQdL7744uEMEa4588wzs0ceeWQgSGydrRWuqq0DPbREN/BT02crLoV4G3ZATOphTW5BqCF9ThBqgPXPok0HYP0n/euKpsrTPtPWG/8bx9WuuuqqIa0t+e05Ee+GG24Iee/Z+67yliyoHuPqkqjTd21gHvd5necPIi/jeG1TvPNcDNyLCY/trIsuumiIXGfnAVuWSft9++23Z+973/uyu+++OxeqOv1Up9517pvah1XPL3pmkQVEmRRPOOGEiTzN0QlCqmT98zRHz6RYA7ABGHq9p8xaukoJpNw7JggnnXRStsEGG8xs02LPO9nvWFVBFq655prsxhtvDPviFT2vQKaiHRQp9bBl6roA6t5/kAm6DcwHef6gbR2365viLbkWKWDr4ZJLLpmts8462dprrx3OBCGJFltUkV9caldccUW2xx57ZPfdd58ThH8iINLvBGF0I8eDFIeAfVtBikVV7WIVUAVLU+VZZkH44he/mL3xjW+c2fvOfnn29dM+3A3soSZVLofmcLzunXfeGawNJNDR/nplGLSmzTwrg74rCygbBq6pz2gD77w+TX1+lTxM0u+amPjMk5O879jrTwyNcldw5LgsBGTKU6ZNSIHOceA+Oob8ggsuyHbffffsgQcecILgBKE3w8kJwhC6wglCPsh5LgYIghS0PSVPShnLAXkgyB0AGUChYpbFDUE0MYQBd4Sy8pGgR9YGKWbtu48zAdoJoa5YqC15gaR17zXM8k4Q/oW2Vvwil2BjYwf4XhklIQIQAmXI5Ehx3AW8l1hiiUAIsBxAAChrcz1wX8mJ5PqSSy7JdttttyC/gxK5OmSyi/6ver67GGaVOXcx1NB4HoNQA6x/Fu1ikFfVokoJVF1vV/j8rRgEEQSrpO29RB6kYPWJAsZUKwvDvffeGwgDJtuHHnpoJkUvxALLBBYHrkWBF2XoS2mDyjhBqINWf8pKjm2GSZuXAPO2zt4gfoDAQt5kM+VMlJVXXjl7xStekb3kJS8JssSbe9qERfa46SKLlROEWc9GQULcxTD6ceIWhCH0gVsQ6lsQYgJhFatW+nwnK4OIgmIS+B+lj5Xh4YcfDqeE8iYXPP9DJDj1zx78A2mwGQ1TiZclB1JsQxCrVh6R2sZWHtbDm8gioMmdTKXEB+iUTg7bIohwoYUWCrED/M2ZKJAF5FABs7IQ0ESRA2s1iImk/pcsX3zxxcHFMOwYhKZdUiY3VYsHtyC4BaGp3Plxz42RG78Ly1wMMUGI/5diVRpXpfWNDyvShG3dCVgRIAZPPPFEIAo6CpiT5giK1HHA9uRA4hzy4htiQiBikhfsGFs/7KRhXRODKN++SYHM9vE2VWFhJ8q43Zbsxe3KwzdPZnSdiIBO34QAMPlz8iaTPZ+chEg+fKwDWLT0Gy6CuJ+tGyzPNVGUzlruBdseyrZFEKom5z7IhxMEJwiN5dBdDI2hG7sLqwhCmcLvorEQAGIXCIbEugBBsFYGjhTWG1IByeCTMvYQIpEXTXA6L0DK28ZWWNO2nTx08qImJjuh5gXJdYFHG/fU5GmJnK2/9cdLHuw1tv3W9K/DyvQd/8sVQC4N3ABM+OS3x/zPJ2+IAb/paG6sBTr0ioBYnQNRREDyMKkzKceTowilEwR3MXiq5QSN4wQhAaQJKdI3giBCkjcBM8kT8KgjhxXHwP+82XoZWxz0PVYJXUc5roWMxO4MTZbCRb9bN4rteutq6bNIWOuIsFXdLQGwvnq1R5M3wYC8cQHIDaBjskmyxUTPpM/kzzWQBR2fzScBhTrd0rqE+BtioFMk5RaISUxsQYj7IRX/MoJAHgRiZ/JeKa6gOkTFWm5S627LpdSn6L5uQXALQhOZC9c4QSiGDgWgiOjGAHd0IYOeSQ/zvVUAZUorhSCouoMopNQm2xWsJQsKOtPRzfyWt/JXsCMEQMce68hnHZcMQcBKoeOPIQ/syuDNbxAJ/Y9lgr8pz/24r3Zl8D/3jk+BzJuAyrBr6s6ITei2n+3fTPqY8An20ypfK30mfFb7mvyZ6HkzofMd5fifVT/luIdW+YoZ4H99r6O0i6wSRZN+3vd1LAV1JuYigsBR6RCEpjEIStmcKuvDJgi0W7rBCYIThLpyOlPeCUI+dAwqFOXBBx8c0rMWHQ/cGPgaF+aZiJmsTjvttHAqGZNX0avIdJu3i6FGlQYuale5KaQkJhNW4aZMyNZaYF0LRd9r9wXY8jefkAXesmaIhNjjwBVvoTqJxFFfZIiyRS9M9Hm+dPqQFTuTPy9IKyRALyZ1vmPy5s1Ez/8qz/WyFuhTz7GWBfWJyFjRRFxngo7bmtdXRX2bItN1BFF9TfsGIQi0H52w/vrrz+RVKIqBiOvXFLtUwk45dAOxPueff34gwak4yq3miZLqSFW7ZX0XQ7t45t7NKuftttsuO/vss8Og4ZU6QLkHSvm8887LVlxxxSHUuvgR1IXJxUZpM2F9+MMfzj7/+c+HSStFCdSxIIyiwSkTfdx/Umpt19feVxMLkz9v62pQ30i2dJ0+46OFyyZDO6HHpMlOQJrwbRm+08RuSY/93pIBrrUWEeFqywyLINTtu9QxnEdOaDOWjwsvvHCgTIobbrhhduyxx4Y4izqvQeqe+hxk7tprr8323HPPkEK9aHFTNJacIKQi3X45JwjtY/q0O8YE4ayzzgqDpM7gRNlCEAhmWmGFFUZuQaDuCjxTW/bff//sxBNPDGbyFDOinZywIJx88skhk2IdXLrsvtRVkq1DVwRBhDLer2+tOfotz80TY5rStqp+sL/bCd0SBRuQaXEqi/KPyYj+d4KQL+3gQnp6yDlWRl4p/VtngZJHblLGnsjhd77znXDgEjuFnCD8Czn6zhMlpUjSP8tMuoth2223DRaEJgSBaGzMdMsvv3zSCr0G7LWKWpM4ip7/MV1/6EMfCkpqWgmCnaxrAZpQWEpVq3pLrmTGVdrevMmharIvqkJ8r7L7xNYIyUlsKch7lrUyxITLCUL5hA++m2yySSDnbNO047OIbOn7VFeE7ZO8+5eJMDJ7+eWXZ1hPcTUUvdyC8NIETTDcIm5BGALe1oJgCYIm15QqUBaCQMY1Dn7JW7E1nQRSnl+2gpDC2HfffbPPfe5zM1kK8xR70eQlCwKHNaVMKE3q3OY1Zab5Np8z7feqQ1DGDStL7HAxlAUpVrXtLW95SzgNVRaEsvFaRMCqnhGThNTyjGcOo+I497LjrJ0gOEGolKlpsiBMMkGosyJFMUAQdJrjOBCESkH2Ao5ABQJOEGYFaNwJws033zxzEFeq8LuLIRWpf5abdIKwzTbbZOecc86MiyHVVzhuFgQnCDUF34tPHQJOEOoRhOOPP/5pu2qGaTWNLSh6Nme+YB255ZZbZs7hSBVmJwipSHVIEGpWobPi+Ol32GGHjCBFgs5kQUghCX0jCPFgwUe+3377zbgYisyReSZjtyB0JnJ+4x4jMEyCMGoYcI3iXiXvR9GryoLALo28ZFrcb9hEgb7TM3/84x8Hve4EYQhS1oUFYQjVTnoEBGHHHXcMBEHb07hwEggCbVAMAtscbZuK/tbAdoKQJD5eaMIQmBaCQDvJ80CQItlGi/RdGUFgAs4jCHmxWLGYpOjXPNGqCsjNIwip+lzPcwtCzUE96QSBrT7sYiBvQJ2o975bEJwg1BR0Lz71CEwbQcAMz1kmdQkCyba4tu8E4dZbbw0yXWeXhxOEmmqgCUFQwh4etfrqq4cVOiex9e2FBeEd73hHqB/Z7ybJxeAEoW/S5vXpOwLTQhDohwsuuCBM8hxwVicPAmXJwsm1xx133NNcDMN2LeTJFDEIWEd++MMfzsQgpFotnCDUHKVNCQIdQsatpZZaKiOYhTSxfXvhViBVMrkMMMOzbz3ObFdUZ7cg9K03vT6OwGAITBNBIAMsbgIIQqoFAZ1HrBYWBPI8HHrooTPpuq2JXvdLvW9qr6W6GO65555sn332ySAK1DlVp1MPJwipvfHPck0IgjqSzmEf8MorrxyEqm8vBJiAFtKNKkgx9UwFJwh9602vjyMwGALTQhBoJxYE3Kt1ghRZQKEn0e8vf/nLs2WXXbYwR0qRWX+QLdOpBIHzJXAvWPLjFoTBxkbu1YD6wAMPhLShmGvqvuhQe+hL3eu7Lq/I16Lje8uebwkCVhIrvKM2s2lwepBi1xLk958kBKaFIDDJX3rppYEg/PKXvyzswliPcTy3DheLz/7okwXBLvJSF3y2/kq1TCK8UevyuHN6lUkRQUKAIAg33XRTsi4QW4snzTpBgMkPG7BgHNGfKhBs71looYXCYU2c3Gbvk3qPAateeLkThK6Q9ftOMgLTRBCuvPLK7F3veldYAKa6AtB5lC1bUKUmm0td0Vt5q0pDLb1rSYEWgalyyzPWWmutkBuHg7ZGrct7TxAw0+y6667ZmWeemYrxjMAVraqbCEfyw4dUkLa9+tWvDulUF1xwwVkShoxaqJwgDEkI/DEThcA0EAS1kRwBnOb4/e9/v1aQIh1eFmOQovua6v+ye8e/NX0GcXMEOH7605/Onv3sZ+cerz5Koe+dBeEvf/lLdsIJJ2Qf/OAHk/IDWAEq2kc7SoDbejZME+LEkcoEYFax27aem3IfsXxcDBzWRB/qFQ+c+H/5CD3VcgrSXmaSEJgGgkB/YRl++OGHg+469dRTky0IsQU4bxIed4Iw55xzZp/61KcCSWC3Rp/0On3XK4KAqQZh4uQvDh8h6t8SgCLlkOdiqGvq6aPiQfjVjjnmmCOwTLb79C0A0xIEHdZU1Vf63QlCHyXP6zQMBKaJILBoOPLII7PDDjssxBXkvfIWeJNuQeD0zXPPPTcE1uNScYKQMPKIQ+DMghtuuCFsB4Q4aPtI1eVNTT1V923r9xTGG5jbbLMFgYEk8Ukgy2c+85lspZVWCtsjR/2KYyn4357maOtX1idOEEbdk/78USEwLQQBfCEFV111Vbb33nuHnVxyS0rXlREGlU3VnaPqz5Tn0hbFTbDQ23DDDbPTTjstbNFHr/etjb2yIGA9gAxACr797W9ne+21V/bEE0+k4D5TZlIIAg2SIM0+++zZbrvtFvba4qdCmCANo3zFBKHoLIaq/nCCMMpe9GePEoFpIQi0E4JAmuWDDjooO+WUU0KiuKrJUBbUKh0yyj5MsYTYMtppx1w377zzZkcddVS20UYbZezY6Jv1IJC3p3qEPkLDxMdk8+tf/zp773vfm3FOOqvo1O0jPWpOkhmtTLhFEDA/4ad6zWteM5M/oWpwdT1oYoKAwBcd1lRWFycIXfeU37+vCEwDQdDqX2fPcCYDVoR77703EIQqfV31ex/7tiq4UXodKzlW4bnmmmtm3hv1wi/Gs1cEARIgdwKM8+KLLw7BinfffXcAUL7uvPgCCVLfBSpPeIp2X/A9e2OxpLBFCOtBmUlumIPFCcIw0fZnTSIC00QQRBSwIrBqPvHEEzMSDCnuLE+v9V2XF8mk1ee2DRADnUa55JJLhpiyddZZZ+Y2YOEEoQDVvAkeAWJbH6tnMnCVpbCcBIJg/XL4o4js32qrrQJB4O8yIjFsBeoEYdiI+/MmDYFpIAhxn3FI3aOPPpp99KMfDVvZRRImqW/zFoG4heVCn2eeebIjjjgipI8m+Fzxde5iKJGCeIKXtQABYuvcMccckz322GNhkhSQ8SQ1DoyzzPwEKaBt2r1B7vJDDjkkpBnlBUGqskAMa6A5QRgW0v6cSUVgGgmCUsyz7ZGYKiL4FaPAb5PwinU0Oh2CwPccBXDAAQeE3WjEHSgYnbb3zXoQrDp9iUEosgAAIMTgy1/+cnjff//9M64GTZh25T0OAlY0yRPVimsFa8EWW2wRAhMXWGCBIFxl5GcU8QhtEQSRPeVBWH/99WeCM/vIqMdBvryO44GACAITA775973vfdl9993XqPJsC8faygQ0Di8sCehyfPDf+ta3ZoLRFasg/SLd1vfFn62n/rZ6GR2+zDLLZO9+97uzrbfeOnvOc54zs+CTayHPdT7qvuwNQQCIWAgs6L///e9DfgT22d95553B5YCQxb6rvCOURzGB5nWsJTJxnRAghIY0ylgONttss/C/3dLYl3bEfSVFVzdI0bLnl73sZUHBrbfeejMBO33YzjnqAerPn1wEpO/QY5dddlkgCBxW1+Q1DgQhXgSyaiYYnR1rJFC66667wk4H6RP0A4smJtCi3AlNsGr7GlkIIDc6XMrGG7z4xS/Olltuuew973lPiDnAraCXAjXzSEXb9Wxyv7EgCDQM4Hk//vjj2Ve/+tXAOvFlIWB//vOfZ9hYfIRynyZVkRm5EBB+hIU3bgQmx2233TZbZJFFwjYgsmwVxR006ew2r2nLgkCdGEz45U466aQMC4L6msxifeu/NjH0e003AhpDyDsB2bvvvntYVTd59Z0g5LmQaSeTPzqbRd/JJ5+cXX311dkjjzyS/eY3v5lxtabsdmiCWVvXxG1Dnz33uc8NuxPQ5fQNb7Y1xgvaWL/1Td+NDUEQi9RuBiwK3/3ud0Nub5jnH/7wh5kgkDiYsU+gQwpYMeB/glniQiCiddVVV83mn3/+wJhhy3zGZrY+taNtgsBg2n///UPKUbKLcf++ZYxsS6H4fRwBWeG0pZvcAASulR2HXIbauBEE2xYRAPTeL37xi0AS7rjjjvA3eh19SZnUre7DlC7FyvEJMYDszD333IEYkNwOiwFkQdZjfre60wlCy71lTTisxHlDFv70pz/NHA2q2IQ+TaiCQXkeSH7E6V1WeLTFU1GteWanvrSpDYJAW9Qe2gxBeu1rX5u98Y1vDCecgQ/P0aCS+6gKg6rfWxZJv50jkISAgvDQAUyGHEzHsfbEH1xwwQUhN0DTSbDvBEEAxfFi1u+uSVa6BSsCQepYU2VtSAI6KjSs+AW5FTgrB/3O/ywEFYCYFyvnBKFJj9a8JgbeTjxi6jVvOZLiRYLcRzdDWwTB3ocBhVsBd8uaa66ZrbvuutmrXvWqQBz4za4iyjBxgjAS8fWH/hOBeNKTfuKTBQ1u0uuvvz7jCGROOST1sCbBppPZOBEESxZiS0KZEDUd100xHYVAN21jV3XtlYuhq0aOi4BMO0Gg/3EriAhAFHC/YKpbe+21s0UXXTScZIlFId4S1EcS1ZU8+30HQyAeZ20qZZEABdhySBHfsRIm4dt1110XzpjBLfrggw8GwqDzVgbZ5jeOBCFevFX1Q9XvRVIxLvqf+jdt42AjovhqJwhdIdvgvtNOEGT50YoLEsDuDsx1ZJTEkoDrYY011giHVvG9yILdEtm3QdZAFPySjhBIGWODPJr74z7AVQA5YFcCOxSIl7rnnnvClm3cocioiIG1gDYlCU4QinvNCUJziZ4KgtAcnuFeWSXIfZr42nIxWIR1z9gaYGMxsDDghoAsrL766uE0NMgCAZ8iGLa8DYCCbCiOASXO82wgZJ/wHa7kTc/TNBnn9XVK/2uHjZKa6X9kS1kCiSvAfXDFFVeE/f3ssuIAOjv561lVYz61Z8aFIMTtqdP+lP5JxcvLpSHgBCENp6GUqhosfRogwyQIeeCDBUSB3Q+4HRZeeOFs2WWXzZZaaqnginje854X3pxfQaAQCh1SgFVC7okuTc1DERh/SG0EyghCnokXS4BW+sgNkzyT/R//+MdgIYAA4Cog6h5igJWArdf8rqPqrZzFY7hqzKc20AlCKlJerg4CThDqoNVx2SplMY0EIU9p67vYYgAJ4M3OkFe84hXZ8ssvHz6JZcDCwPcknyLvBMRBB6fkWS467mq//YgQ0BboeCzlxbBABnAHsNWOCZ+/IQS4DX72s59lP/rRj0IsAYQA64GsCZKnMmKg5leN+VSYnCCkIuXl6iDgBKEOWh2XrVIWk04QgBcMbDvt/0WuhzxFrO9wKUAGFMOAdWGhhRbKFlxwwUAWyLlAQir+hkAoOVMZ1nYrmjUVW9dGnimVOnn66I4HUXR7MNf2YevrF7mkOBM7VgJcAZABsvmxBZGcBJwZQPKihx56KFgH+F85V0RUtQ2X++TJb1mLq8Z8KlpOEFKR8nJ1EHCCUActLzuDQBcuBgtvnuLMW+WJVOR1Td4kr8xtIgVYFyAJnAXBm79JdEIOBj5xYUAcIBk6cCWvHra+ysNhyYC1UtjJyUWqWwTAXZlLeRKWACZ+3AN8steez1/+8pfhky2IZPIjmBCigNVAWxDbIuh5FoZBURhXgjBou/36bhFwgtAtvhN791EQBK3Y7GcqQchT7lpRKgMaK0HFNUAIOPhGBIG/IQy8+Zu0qVgdiHNQWlWu5zlaSVqLCO4Me06Ik4ThDQ0IG1n5Lr300uzGG28MZABrAQnW+BvSgFVABwUVyVRbfWYtGW2h4AShLST9PhaBsSEI0xJQluK37IMIj5ogpGCQRwqUqlsR5TIJK3hRK07rDuA+TO7seCDgkTdxDGyzhEhgjcDiQLAkb/2PWwMywZvfKa+tmXH8REp7hl1mEsYcgansKDj22GNDECEWAvoSq4CymqZO2G0QhNRn1e1rJwh1EfPyKQiMBUGIJyMaFptv4/TKbfn2UkCchXHNNlv4l+drEsI0bV/6DYUTJ/wpqndb5s267Skq3zVByFvFpUaAl8UCqD1F/mhr/k15HnIoCwQEgr7WGyLBd/qevlawJCQCkoH1QUQDawWEg+9FRLBoaBcG9+V/m3raWiVUFxsXQXt1XHhMPvU/9ZP1g/KKsSiTub7JYyynjD3IAVaDgw46KAQTKj+BlS3aUUdXDEISrMVKdbAxC3XqEbd3XAkCsia3n5U7sND/Cia2Yzc+b6ctvVZ1nyrdEo+9cY856j1BiP111pcrIVIa3ljpV3V2l78jwDI1WwGXQtCqlE+ZNmNhipVwn5TysAmCbXuVIm2KU959i57b5BkihCKF/M/kH08WsmYwaVtSwP8QCAgF14k8UEbuEb6HfGjS53v9HStanTrHTg+CNrmvzWQZjw/b5ibt73K82Xsz7ogxuO+++7J3vvOd2e233z4zFgddwQ/abm2VpB70jc2NUCXXZfiNI0GQtQ4c0IH6X/Iq/Z7XZ/SDFoXgMghxayKXqpOto+YhOx/RrnE+lXbsCIIikhEI/IhEG+NL1KEebDeKV+xNBKDpNbIOsFrRKkZBUvoNRczKkTdmaFaOUvJlGQEHVU5N25R3nROEf1iK6r6Em83FIOJgSWXZ5MxvUkLxikWK0q6wVEaK2N6b31DIZKfkvHoOyyK2QuOoiBT0SRbz+oDgw3322SfjlMR45Vm3z2K8Brme/lc8CjqiDvGdRIKgg4xsumnIHS6gRx99NOh23uSUsC8mXY0hHYo0SL/UvTYeX3JBUi/ikrAC8lY9rYWu7rNGWb53BKGIRYsYIEhsO8JkePPNN4c324+IOEao+H2UZh0pbjpV5rNYCcgkDVEgwQ+ZAFHQyyyzzMxKTgNHZjZ731EKjFW29m/qu99++2Wf+9znwuot5ZWnHC37zttOyH2rVlpNJ6+uLQhFmMIJjyEAACAASURBVMjMbZ8f93dsHdPqCWKpZD7cB0Uk5WXvYU22drWl+3Iduzje+ta3Zu94xzvCcbXy0efJYFOMU+Ri0DK0icOQODr8gQcemEVeqmSn6tmDttti2hY5oM7jZkGQJVWyCgHgNEsOrvre974XckzwvzJQ5p1yaftSY6iq/wb9Pe5/O3YhA5Bt4pDYTk2m16WXXjpbfPHFQy4W6xrkOnRmldV40PoOen1vCII6O16ZakIATCKNf/CDH2Snn376TBpT/d70mNRBAcy7vkyJxIpeSpxVGwcSbbLJJuEUQ5S1lL9WHW2uZAZtdxsWBOqgyYr7WROdzI1F9SxT9E2VeHzPpvdpiq2en7dql9zkTSp5SiuPyFXJD/fBRbHrrrsGskdwpSUWlnAMG5u6mH7pS1/K3v/+94fVZ1uvNtqs1N5K9U3dIA12K2aT+o4LQZCMo6/VbnJMEEh61llnBf3OYg+sy+IMBiV6TTBOvUaxQOhvrAibb755tsUWW2TLLbdcsC5ou7S1dhdZ6lKf2VW53hKEeAKCUX71q18NQkSyEpnnbCRyVyDVvW8dgqAVH89AsIh2X3/99YO5l1MM+Q5yFJuo2lBWddtly7dBENQGPhk0+M6xAuE6qlIA00IQYsy7JAgiaZDTww47LCg1rFx69VWJ5cnxJz7xiezQQw9NtmaljIW2xpzOBGGCAHPtbmG7pXIupNTHlhkngiDrAdYBTrY88cQTw4IPd3FqTEaVfqiLX5vlRQAgfZAc/ifOZ6uttsq23nrrYFGQTs8LCG5LztpoU28JAo2TIN16663ZkUceGSKSYZdMmgrsU5k2wGjrHqkEQc9T4JL+Z5Wx6qqrZgceeGDwCYuRVq0A26p/yn3aIAgyr3EvLCiYtonL4OQ7XEfKWJenDKaNIORZF/K+i/uuaHzkyaisFJDR1VZbLfvGN74RYmTilNQ8o09KLG4zyveTn/xkIDlMQoOuzvMIUsoYySsjEsYYJ+CU48yxHFJn4iXwuzd5jQtBkF6HHH3rW9/KjjrqqOy2224LMS9aDKXoub4SBMaFYiOsVZu2kUNlo402yvbee+9sscUWm1kEWZdf38ZWbwiCBEcKzZKDQw45JJigdPiJzE/y/1Qpq2ELU1V9NACsgo/riEC9+tWvzj74wQ8Gi4La2qayaqKI4rqr35rGIKjdTEQnn3xyaDNKkgQ21113XXbttdcGskCWu/ilKPAyHPs24FIxryOzsVVB/+fdo8oKoGtY1Z577rmhP7Szwd4vVcZT29tmOer5la98Jdttt91CJsQ6WJbVo6jN8f1jws89tR0VAoyp+fWvf3224oorZgsssEBIukXMxJ577hl2XuSNsap64Zr8whe+ENxC4/CCfB5++OGBHEi3iaBaHZdCgqva21b/Vz1HuqZo/PE9pHCDDTYIbedEWqufYqKQ8ryuy/SKINhARAYZwYcf+9jHsm9+85thoBfFGVQpq2EKSN0JqahutAmTO4EurIRWXnnlWVZtVW3uWnDasCBY0jPPPPMEBcfg0YudKRADCMMtt9wSCAOuJv5HFiCMrDyqFOqosWrSF3VkNo8glMmVrU+RJYEyxx13XLb99tvPuBmqyEWTdnZ1DaSSo8CJQWhqto/rVkeO7Fa9+eabL5CCNddcM4xjXDgEskEW5CK9+OKLQ8wEgXlV8pxXr3EhCFhzcCuwwwTLMK5ivariyOrgbzGqM5bakMe4nvb5EEX0+tve9rbsgAMOyF72spfNBCo6QUhAX9H7+OM+85nPBKaFT7pMeKoEZ9QCUtbsqrphepcwEQlr2XUCnJ0VaZsgMFCwIIgg2JWD9rXjo+TNSXrsbeeIXXaz4HZi5wSEgU/rx6xL2DoDrOaNq+SiaJKvui4eK0Vjh/F2xBFHhIBFJrvYzVU15mo2t9Xi1B2ZwEWHf7utyaKozWBDBLuyazJmySuxwgorhJ1JRLRjISNADcuM7iMXG/WdFoLA2N13332z888/PxA3G8U/DQRB+gh3w8EHH5y9/e1vD7Kj7/s2rnpjQYgnBI5UxbROhCu/lfkRq0CtUpqtaqea/tmyusmXxQFC+FQhCn3Z7tg1QdCAYbLHSgAWsUuBOnDULlYFCAMR0JgsmRy4BgWkfBRtyUB8nyrZaypbdeobWxDKnplKELgH6YlRYLwUeNUXglrWRu2ZZ4VKoCUHL4GnNWU36Ret8EQIwIRdHxCCJZZYIgQVEzu01FJLzZwMakmA8h9wHx0NrZ1K00AQ0OFsgyazJfFF4GBJQexiyLOUNOm3OmOpyf2r6hk/H5mh/3ExEXSPi4kyfdHtsyw+nho2egk9gFkQs/rxxx8fXAuDrgKH3cQ2Jw0pJfangwnmyjg9cwKkrRcZlCBY9wKVw4Jw0kknBQtCGX56rn2+juvlPnz/k5/8JLinfvrTnwafLnkzcFfwVqQ4BELmzVgxxUmMVNfYMtH1ZJkqt2UmzSrlVUQu+P7yyy8PAXRq/7i4GDTpMAnhnmQ3AwsN7UNXvytWQGPMRpTzXWwZwDSMW4DVHySAXBHkMCGOAOtA1Z72WOal1/IsCHlyXjSIuW9fXQy0Q1saGY8f+MAHsosuumimKXnyZxeLbSiu1HHUxrPqzFUQS9xKuBqoY0zC26rPIPfpjQVBjUBxYzbeeOONswcffHAmnWbe4EpteF8FJLX+lEMZHXPMMUFhWzNlnXu0WXbUBCGenK2i0USOYuJvLAqc5qc3K0qO9MX6wG9k3eNvneinQR5vuSpS2m0SQttHqXLbFkEQwWKiW3bZZbMzzjgjJPKKJ746SrBNmUu9lyLiwQVSyITEDgHiElh8gKs9cVNpqgkg0zHffKLAOTsDUg6BhQjwN79ZZQ4+yt4qmRHpiOU0zwI1yQRBMoU175xzzsn233//oNfzyHWqvKfKgcp1dd8ywpZSR+QONxS7OZAvxeClXDusMr0iCHQkgnT22Wdn2267bcBATL7K/FQGWF8FpE4n46f6yEc+kr373e8OqZnzlHad+w1atg2CIOXBJ2Y2LAjasVFUvzwFG0+Q8XHLMt/Jj85AZKIgnoHdEk888cTMG7JAYCTEQZ/8DXlQVrdYFieFIChgjtXwRz/60RCgyMQn07jFvqs2DyqXdlJADqgnFgNWr+yEwrpEkCuWSUy9OsabIFkCB7EOEESoQ7WIK7AxGGBgLQ7KhhefDCm95QQhC2SMscZWdbY12sDitvp7XPU/JPSLX/xi2P5oieYwcEl5Rq8IAoLEwMXkgntBg1FEoelE3/S6FADzynShPBEe3AwMMGISunhGnfZ2SRDyVhe2bvFEFWMRBztZpW5JSWwy5zqCHCEDyCFkgb9FJrAyQCYgDAqY5G9+pzzBtAqStGbS2IyaR3Ksrzo2seZZLmKLml2xxn1T1a9cqxUw9YCcQxCQM61qtE2vqm+qnjWs30XiVG/+xwdOH0L8WIhAEHAZQLj5VD/F+IlgUneZy+N26HlF/Z5nSrfPw8qx1157BdeYldEU3dVnF4MwY3cGOxfOO++8YYnALM9JwbGtitXRzZDPXXbZJYw3yGida9uqb9l9ekUQGHwMXgKjLrzwwln2Lw8C3DCFQ2Sm7c5D0b3qVa8K+7vZzTAIHm3UbZQEIa5/ChaDyoCCJbVbAjLAJMP/vIltgDSIMGDahjhAMJBp/udvVk9YIijPdbHfm3oqxaxIg1bCtDu2jlgsYrO2nWhiYoR5k1Wvgjj5Gx87JBSFRfS9cM3DNwXzNuSs7XtY609Z++o8N4+QxeSz7H5cryBFSxDqyGzfEyXddNNNIS8Fn3pVtW9cZayO7DDu3vSmN2WkBsdy17dXrwgC4HC4ypZbbjmLIA066VYJYtudkirY8SqwrB5MFmTf+va3vx3iEVKf0Xbb8gY3+NZNlBSv1qyLQc9IbWNKuTZlgAk8zhNPHfS9jq7lO3CBHGjy5n/IgXVb8D/kQd/xPxYJWSb4n3tAKLg3kzq/8zdv7smz7YSn56mesRVC2RH5Hd87EdVksiRzJ4rKnpaXJ0MpmHcle327b5VsVWGVRxCqtvzFGPSZINC+q666KrhH6ySCiq1Wfev3NuqDbJAfg8RRxCH07dU7goApCkZFoGK8OkoBD8UXB/FVDeCU+9YpU6YQWHXylgJPrRvl2UtNZDnpWauUTp36Nik7bRYES2hs2xWUZrcoWfO2iIPtbwVPalWviV652+33doLnb5WFJIgcYJHAoqGXUlTzv9wmcZ2VlRTz+kILLRTeyFfR2QuxjIxa/prIbJfXlI3jKqymgSBgIdlpp51CzE+8OCjqF0sQMMUrX0CX/djk3owxxSfVWfTpWVjrWPiRWXHUsWVPG+d92+ZIIg12MHDsZypBYIBBDPjE/L7pppsGf07VtqMmwpB6TZ5SYDK54IILwl59XnGZKrJA4BSHmrDFqkrppNazablxIwhN25l3XZVJ2fqhdX2sFOO+tv/HfVvU19YqkEda9Oy81ah1Y8jdYC0QVXiNWv6q6jdOv086QaAvLrnkkmzHHXcMOSlSXyIIyCcZKNdbb72R6728uuNCZIKH/FDnou3QRe1GnxObwS4ZJwgl0sFAIUESe3pJfpNKEFQOlrnWWmtlp5122tMC+bSCSxXOQcvlKVD8zyQ7Ym92Xn2cIPxjF0M8qVb1xSgmq7K+iglCGRGs6vOYSLbV1tjlUHestVWPqr6dht+ngSBcdtllYVdMHYIgGYMg7LDDDiFwvQ85YGKZZGcMbSMxV97Cr0qGl1566UAwnCBUINWUICgBCuyrjCBUdVRbvxcpT8zC//mf/xn2vebtea2aLNyCkN9Do5isqvqqbMKtc23c4rbaOkgdmijBtsbWJN7HCUJ+r6LP0ZMs/JiATzjhhN6tsKn5nXfeGdwnZHJNdZ+oxfS9CALpud2C0IEFAZABFnbJ4UYkeGEy7Wr11VRJQRCwIJAwREFlVuFXKe1xIQj446raEmOosxisBaFvgyW13/NcDHnXpmLUFimI6zCI3zwVCy9XjYAThGLiDzYQBCwIEIQ+WhAgCOy8Y4dGXfcCYxuCwMmpxAF1NdarpbCgD/oUg9DUgsB1SuayxhprZGeeeWZwMejVF9BlQcDFYKPOUztvGgiCPc2xL/2W2j92VZC6yk4hCV3ikPf8Lp9XF8tpKO8EobyXIQjEL/TZgkD9sCDQlylj2s5NEASsymQt7dvY69UuhmkjCKmTiITJCcLkTRdVyqRrheEEYfQyNS0EASsAWSzrvti9IAtCH62KWBCcINTt1Qblp4EgbLPNNiFI0eZsT4XKCUIqUl7OERgfBCadINA+ghTx03MGSt0XBIEJmCDFSSQIbHPE7ewWhArJmEaCYCGpWi0WEYSqVWjdAVm3PM+3iZIGiUGYBBdDXfy8/HQjMOkEAXcq+Vvw00MQ6uorJwijGx/uYhgi9sQgxBYEJwj/QEBBik4QhiiQ/qheIDDpBIHFA/lbnCA8XdxYFLoFIXEYugVhtlKk3IKQKEhezBEYIwQmnSCQ8ZOTNEnljQWhbhrpSbcgcLQ6bmd3MbiLYSALAufQX3PNNWFbjH3VNdl1oTupw9577x0ijUklXbdObkHoolf8nuOAQFsE4eSTT87QEcNOCleGsaL6IQiKQXCC8C/E6Kvlllsu7GIgUVKVm3nY8uwuhiEiPoiLgYHGITrnn39+SLVsB9mohYotppgRDzzwwAwlZU8cTIXXCUIqUl5u0hAYlCAw/jfaaKPs6KOPDgTBHknNWNRR3nm41SXyVdiLEOiTuhFYyGFNe+65Z/bwww/XzhUwyRYEsFlhhRVCquV55pnHCUIV22ySanmc8iAMEoPA+fXrrrtuUAK8NLhHvWJQ/nFSjXLYFkSoruJxglClev33SUWgDYLAGTSrrbZaOIOGlxYQykZYhF3dcVqnD9BLCmAmxfItt9wSTjKtm0xokgkCiytOUiVRkhMEdzEM5GIAPm3zic10o7Ii5GWC1OqhjjJxglAHLS87SQgMShDAQoniuJfGpJ2gh4WXFiv61AmkdTLGxnWddIKw0korBYLw0pe+1C0IbkGYNQ+CxaPOJN8l82+iTKSMmlzLNU4QmiLn1407Am0QBC0cRBDsmQBluqJtPWLJiXSCfUaT500yQQCjV77ylSEGgePW+5bnwWMQhqhdBolBiKvZZKANsam1H+UEoTZkfsGEINAGQbCLi3ihMSyCED/XkhTbVXV117QQBHap9e2sCScIQ1QyThCKwXaCMERB9Ef1CoG2CUKdxtWdrMvu7QSh2VkMq666asik6ARhgBgELi0ywY9LkOLf//73bNttt50l1XJTFwPXtTm46yiVLso6QegCVb/nOCAwKQQh1tFuQaiWPlwKcjFwwKBbEEowY6AU7WKogrpPpzkWTdxYECAIsEWSh9SJOShr/yQQBScIVRLuv08qAm0SBMUgFOmEokm7TWyr9FpdfTVJLoY8K4u1IHgMghMEJwg5MuAEoU0V7fcaJwTaJggpboC6k3QdPJ0gPFUIlxOEOpIUlXULQjPwuhzszWpU/yonCPUx8ysmAwEnCOX96BaE0cn52AQpVkHkLoYqhPr9uxOEfveP1647BNokCNSybMHgLob2+/HOO+8Mx1H/4AfVQYpuQRgAf7cgNAPPLQjNcPOrHIE+IOAEwS0I2sXgMQglsuAEoZm6coLQDDe/yhHoAwJOEJwgOEFIGIlOEKpByjMR9oEgeCbF6r7zEo5AHgKDEgSlNbY7GKp2MVS5IgbpqTwzuq1PXX3lMQiD9MZg13oMwmD45V7dxTZH3ZOT2RiA9sTEugOu7SZjFuPNNs6mL49BaIqcXzfuCAxKEGi/CDqTKVuoi45UFploA7O83QrSRXyKsDzjGc8I+qruIU2qoxOENnqr2T2cIDTDrfSqLghCvEqIKzBqkmAVQxNInSA0Qc2vmQQE2iIIligU4VK1BTEVz7L7iBzEVoqmVkYnCKm90n45JwjtY1oYRTxIoiQGF6v0hRZaKJt99tlnecYoyQHPlgWBs95/97vfhRVM6ktKwwlCKmJerg8IaHXcRl0GJQiMoec+97nhNMCUILc2SEJZVtuYGGBBQC888sgjs1g+U7FzgpCKVPvlnCC0j2knBIGBjxI47LDDssUXXzyYEAfx6w3SbKscURRsMcV8ePLJJ2fnnXde9pe//CUpDbSsIrSFs9C/+MUvZhtssEG4Vs9oQ5kN0tY+XFs1GUkOHKv03pIJPsXkTlk78baNdxsE4dWvfnW2xx57ZHPMMUdwN1BfyUOZKyAdsVlLFuGmsSuZ1eLhpptuyo488sjs8ccfT9IN9mlOEJr20uDXOUEYHMOn3aELFwOT8POf//zs0ksvzZZffvmnDbJhWhGkfFCc8iuiMPbbb7/sc5/7XCAIKS9LEDjqVAQBCwT3RTHY1zROgJYIxu2P+9xOXJok8sy8KX0ziWUsPsL1b3/7W0ZcD6tcWbPsJGevUZ78mLANKpeDEgT6avPNNw8EHYKg8WlJQiwHg/ZvVZtpExjzBt8rrrgi22mnnbJf/OIXThAM+ODoqZYTpRGh8rMY8sFCgT3nOc/JrrzyymzZZZedKdTUr5fYJbnFpFxlPdD/++yzT3biiSc2siBAED7/+c8HC4KSXsVtqzJrqrJVymuQtvfh2iqLguqYRxrHGZsmK3eIpqwFsgJY/GQdyDskx8bV5K2Ym9QnT36owyWXXJLtueee2b333huKFAUZ5l1PuzbbbLPs2GOPzV7wghc87cCfLvq87J64UvkdnSWsIQgkE8LNUKdttNctCKPTOm5B6AD7LiwIKAFO+zr//POzFVdcMdfk2UFTcm+piduuuFAKBx54YHbCCSc0siDQtr322it71atelb3whS8M1hJWHigH3igbO/FJQY3DJJg3odvv1AYmM078/Otf/xo+f//732dPPPFE9thjj2W//OUvs1//+tfZn/70p4CvdeNokmP1SHzK8573vDBRQLo4Qna++ebLnvnMZ4b3s571rPApPIvq1jcXT9zPdoJSXe2Ezd/IJDiCKz5w3uDJG1M3eD755JMZVgTevKwrAbmba665Ap7IJHEyvPnu2c9+dpBL4Znn+0+dmKkflkFcBPfdd19tgsBzNt100+ykk04KdVNdUuIRmuqMsrbJAmMJOwThne98Z/bggw+6BcEtCM3Erm8WhLbN9oMEKYIoCp+VhrUg8H2qImrWK9VXgRNugf333z87/vjjZ5Rt2UrW1lsKHgsJSnfuuefOFl544Wz++ecP8RZLL710Nu+88wZFPeecc4YyrPikiFCwkImi1yjxYfIGG5mwVUcmLr5jov/Vr36V/eEPfwjm15/97GfZj370o/D56KOPhkkNUiBzbZ75W/e0pmXw4c0zIF8LLrhgwHTRRRfNFllkkRDsCgljQoFUxK884jAqHO041N/WGiCChByAFcTqt7/9bXbPPfeE99133x0sk/fff3/4XVuE8zC1bZTVgGcJS7CCfIEnOOLuA0tklhghZBgCxr2RUz6L/PVgTntEELAgNCEI3GeTTTbJvvSlL4U6FPXTsPovz/ICQXj729+ePfTQQ0MnCE31eCpenmq5eo5opYQThHIYIQisNJZaaqlZVjqpgtxKJ+XcxBIELAisgO2rbIBaNwKTGZMp5ZnwIVQoWxTtAgsskK299trZ6quvni2xxBIhqBGlLDNm2Tnqo8THkhhLmJjE2PXxwx/+MLv22mtDHncmMwiDjfEoWzmn9qed6MAXPJnY1lprrXAWPfJEBLwmN57fF8tMXA+7OtXkS5vAk9Xpbbfdll111VXZDTfcEAgWsihZsqTUyl3qBCLSBD4yk4MlkzJEds011wzyCQnD0sD3Ii9Fq3mNncsuuyy4GNogCPGz8shequw0KZcns04Q/oFkrIv432MQEqXMCcL4EgQUIUGKdSwIeavWeDUsRSylg0Jm9faa17wmW2ONNbKVVloprIwx+eqVNwgTRbCTYlLQmLNZbfz4xz/Ovvvd72bXXXddmNSYxEQKbAKsOAYjT8FUVZh7aJeJVqx8Zyc4JrR11103uHeWWWaZMMFBzOKJZRREy65GVX99B55YB2699dbs6quvDiTrgQceCMRSpIhPsLVWHJHQKuxikqt7gp3iZGQBEKkFNwgXZBb5lPVLuwtiDIdBEOq0s42yeYSL2KlRBSmmEsC47any7haENqQm4R7TQBAYJGeeeeaMEkuAZaZIny0IKM199903O+6444Lft+nLmmPjYCY70FkVonRXXnnlwMDXW2+98Ddmc02s1AOFbV+pg75p/blOq0bqy2TFRHbzzTeHSew73/lOcCH8+c9/nnkE5bQa1pfx/4PUR7gJF1kI+F5WGz6xyGBZeN3rXhdWw8stt1xwP4hQxL5te99B6pdyrSZS6kI8xve///1AsCBaWA3oa8podW/raoNqY9KVOnno3soKGMtmLLeUY7wik2xBhIAtueSST3PnKIgSC8L73ve+4AqRDKXgojLWxdBl7EGdOtmyWD532GGHEE9T9zVokGJqHztBeHrPeJBiibQ2FayiWzJZ7LzzztnXv/71oNDqTlZ9JQhSaOxiIJI6Jgip7cxbXcWruDxsmcRe8YpXhBXwW97ylrByQ6mgfCEI9r6pdamrxChv5YW/8Xdj7iaw9MYbbwxxBRADO7nY+rQtb2pDionZlsHVwGSGlYZdJVhpwFhunHgC6gJTazlQ3YjVuPzyy7MLLrgguBDwZ8t9YJNz1alPHcxFArjGXldmseI3YhawJGBVQD4XW2yxgCf6QGSN2CKCFNsgCJasNJHjLq656KKLsu222y4EhtZ9OUGoi1h75Z0gOEFoRZqY9EZFEJi4UIpYFHA/oIg33njj4GPne5tPoc7kURcYFD5vsMBiABG85pprgtKX2VuBcbp3nwgCdVIwJRMuQaGYy1/72teGKHn87LwUsNcl8dIkDMn7zW9+E/A8++yzg8UAN4LcMiIrshJQvzp9nEoQyshr1fNEcIQnJOHNb35zCLyVbEIQsCAQSDmoBaFvBIH2QxC23357JwizzTaLWqGvPAYhUdPKxcAAuuOOOxKv+kcxKTZWj2eccUaI3M5TwnVumqo8Uu/JJPGud71rxoJQFAyWdz8EiTZhqsNP3KVyTm2PLQdWe++990AWhKrn5vUHOMh/L/MxVgMizN/61rdm2267bQjA0y6HKmVeVYei32UxYNcBuSCYzJjI2D4nF8IwTfJx38RERP/HmApPJmb+Zhsfq13cDW9729uCRQFLVuy6KZLZJnhqQsXa8tOf/jT72te+ln37298OQYdyzVA36mgDBpvUoa0xXiZXIjuUQU9hUWAn0tZbb51ttdVWAWPGNUGKk2hBoP0XXnhhcDE0tSBwLe7LsmDksrHZRA5TdQUxCOzQIAZGY73oeXnWJicIib3DKoDIbgjCLbfckrwS0MTAQFtllVVCoBxsHSWmlVtiFWYp1pby0E1ZlRHIx+TB36kCyPUoQvZiX3zxxdkKK6zwNBbapH1tXjMoQbAm7jq45xElfQcpYNX7sY99LHvDG94wE6wX51QYlEgiY0xWBGIddNBBIRCxKN103kRd1N468pHalynY5mHKdax2sSYcfPDBIReHzXYpt0leneu0Q3kLuIZxQnpeFgs2eJO25q3opQf0OWi/xiQrVemn9AV1ZJfDG9/4xoAnRIgYHnay8KqbTKhsm2Md/FPqXrcMfXfOOeeESZR4nLovxitzwlFHHZV01kR8/6btryJ9zC8sALD6fOADH2hMEFjUfvOb3wzE0eqmujh1Ub5XLgYaqEyKKNm6x4OixOg0Vji8RBCaApeiTOveG3OpDVBLvR5hJYiMlQarj0mzIDTFugoHBtzLX/7ybMsttwwrYAiDzLoiJU1W9jJpM6Ehq1/5yleyc889N2SKgzCkTPpVbW6q2MpkquqZ8eQbExrGFG4ckt6Q3hdsKoMJrgAAIABJREFU7cRcRtiK6qVjwiHBxG2wywMrDPEGJDTinnLdVE36KbinjrkuCYJIP9YZduEQzMjYxkoyaQSBPiEOBysA+Snqvuh/8nUQgNzk1XQcVREE9AiuLnQBcqrYq7IxFt8TiwgxPt/61rfC1u2+vXpHEGBjsGGURCqLpkNQLtrOJLOj3f/cO+AjX1RV/WgjpnL2ExPkZE1tTQdA1TPr/N6GBaHO8/ImijwcbDT7Ouusk73nPe8JsQmQLQioZex1cGTCIrkRQYicP0EuA010Ih52JZtHQqom6zr1ScWu6pllBIHfFO8BUQDPXXfdNfhQlaCnCUHAmoaiJQgR+QbP22+/PeCphE86n2OSCAJYST61GlX/pOo+4dFnCwJ1ZJcG7j4m0mG/BhlHedeqj5hfIAXIqO2vOgSB/sfqDUFgYTtIXbvAtVcEAWBh0PiOUbh1wLKdIt++3f/dBLwUZVr3vnXaZO/NdRADfLGsOPhf92p6z7p1Lys/KEHg3k3wrrIgaMKTTMDSiaYmdz2R5ShmEYUyHOWT5z6YFTF7YxbEcoDSs1vp7AqwzEpR1d4u+rXqmTFBsP/rWiWnQkFiQSD4DDzJnyACobIi79r6SZusMgVXJn92eZx++unBCoOfWnkLRPolH1XWnnGyIGg82RwY6vNJIgj0Cfr8He94R0gElSKDbeqmru6l+SUep3UIAvfAbUdAM7uH+rZFtVcEgY7EBE80PCf7xRNk1QRVtbqoKyhdCHJTpY8gESBGfAVK2dat6T3r4lGF/6BBik3xjttfRhr4jcnn9a9/fbbFFluE2ASYO5NdXgCUVdgobdIhs8o966yzgglcE5lN6FRHQdQp20Z/1cE4xRpAGcy/WBNw4bDnn/MfZMVTUiGIgMiDXDB8B57E1Xz1q18NWSWte0Yk2JKNKoKQRzTbGh9dkI+iuk0SQaCf6Vv0OnlA6shgGzI/jHvYfkwd05Rj5xWHWH3qU5/KTXk+jLqXPaNXBEG51E877bSwJzh1b3PcIV0rhEE6rWndWLXttttu2QEHHBDM404Q/tULZQQhXhFrBcsEBjEgQIhtkaQcJqc+AxaseTOhYfrGL86OBFZBbLMjSQ/mcMyLNqERfVKl/AZZbQwid7q2qn5lpLxMdsGTQ6EgCiQFYqcNuSl0MBTX8mwIAH5o4jbIgIiLhi2MSqCTZxmbZIKQZ7GxFqjUPu+zi4ExQs6Kj3zkI8HiVje2LBWDUZZrQhCoL645yAFW8/hQulG2Z2ax/VQdjdFxjVEekAJ2MLDCIxI8xSowDQSBCNfPfOYzYVuU0rymYNNxl83cnj6oa0HQoLITQJP6VpEu+3t8yBMTGNgyubGNFILAbhje1EsH/2D2ZrVL3AEKTy4HrVjjthS1o08EQZN2al3LyINWvODJbhtcOQSVcbgWnwoYhlhxmiKWQrCUe8YSg6L6WAJW1eddEOguLAhFmE6SBYE2ots5zv1DH/pQGFOT9mpCELiGA+kI4OR8GV5NtnF2iWWvLAjKLEYcwnvf+95wcqECv6pA6ILndHHPKsVm26nnIzRktWObD/vRU5RpFV5t/96UINjAUjt587eC1Lh32aojD1Nrio5N5dYdoN/4pC4KitPkCWHlHWc/tPfn76rJNo/McQ2WCsU15MmbrBl84gZRHWNfpUiLYiHAi1gJnTvAvZUmOFWuU3HNs5zIr84n9bYWBLtrIXUiT62zXZHbrZcKYoaoSAnbPlc/2DYrPoJP6gyecpVIJtX3bY0n4VSnvTybbYBVpzm2Vcem9yHVOIsILEc2sVXT+/XpulS9Tr8ig4xLPrfZZpvs6KOPnsn46tscS3pVecmxHJBnnaAWVm7KPlfWCXUHVIpwdXHPVEGSokNgWNXutdde4Y0ZSsoupQ3DKtOUIIAH/c52L/I7YLZnpc4AYs+0nXysy6lo5RVP1pZMDWqpSH1mGeZ5/U8fy1WhiZw+Z/XNzhWCUglQZXshq3HMkvj9RRK4Btz++Mc/hjdnFeASYW89u4LYesnWWk1wqXJdtirK+y1umyVNllBVyWQdK0vZvTROkC0wJggMDInhwZ1EJkMsHWDJW8GXuie6h8RX5GYhTTZ4gisrYHBGTyGTIhx1V/1WVgdt8zgQBFx15AkhvoyxPUmuhlS9rrFO32O1POWUU0LcjrBISUBWNX7a/L1XFgQ1jIGG+ZHUoyRL0UEsZYotVenVAa+Le6YKksxNrL7w6x5++OEh6r5vUa7CswlBsNcS2Mb2NiJ6yYWBX5ogQD6Z8FDGRYdApZj3VKatPk15Zp6s2eu0umZ1Sj8z8RMXQTwESoOjgzFBagLSBGZ3BBSt8kWsIAUk3yF+Aoscvn/M/ExwVRNaShstCWiLINQZo3kWN+oBkYZg4e7g8CnO6SDeBDeS4ktEHjVR503SijPR6ZbETxCJT1IsFjEcvAWWTH51T4mMZTEF7yJs+k4QwAZ5/973vheCFdkFBGZtjcemMtPWdal6nfYynhnvbBEmSRbElZesU23VqY379IogoLAYkIAHkES8HnjggcEkJZOeOiIeTF0IWhf3LBMkKVspLgYUKYM//OEPh21kEqy2zZptCNKgBIHVHMlx2KmBMpF5nOOQ2QJHcCCpTPkfxRKb/PMmirwVf1t9WleZa6+0+lYWA46pxkIA+SOrHglzXvayl82cIcFEJ/eBXDC0SyZ8/pa5Vt9pJ4CIhSxz4MbkpuBAJjdWxpAv3buKNMSyYgmCrF4q09SCkCqPti+FK8oWfy7kCmLN3+BpLW/WIqkU3NzLup7UFvWzVnja2kbwKroKqwKyycQHngTj6SA2ETmRNUtIuP+0EATpK/BANr/whS9kRxxxRAhMTUkulCoPoyyXqtdFEFZbbbUQU0ZGUrlSdVzAKNvxtPHdlyBFa0pWJVFoHI1MqlwdYkJHKAe7XYHmDbhBgW5rMsmbqIrqJiWCIiJdNFaU3XffPayGrEk5lbEOikHq9U0IgtqA4sDUe9JJJwWCYNup57NK4wQ/TvLDl6lMmzZYMJYHO1EV/ZbavryJsc49rRtBcQQchKQTKEk2BFmIX0UyWEZQysizVnKYya+//vqQVwPrAmZ0FJWsdU1xiUnCIPcpulY5LTTmwQgXATsniNUhaybEADcN7YkVr8Untiw1GfPIL4GXbH8FT3a5KLOetnsW6aci10vdevTZgmDbop1qn/jEJ0LMBLhJp3chK8O6Z5k+FvlGFmg/2VwhSBxRj/srT08Nq95Vz+mNBUFCZIUJQPEDQhJgW6weZUmwK528a6sanvJ73UGacs+qiV1BKphCSWeLGYq/+0wOpPya7GKQcmCVhwWBVbSdAGJyhYn3pptuCpG/KOR77703DLp4V0ERKWurT+taEDRxoixwG7AtjRP9WEmwis1bPZTVtQlB0CoZIoDJHJzZTQBROO+88wKe+NgpR31SA4TLyFPKmKhbxrYdUkVcwcYbvznbcMONAkmAGGi8lFk4LJkZRIcIVxEFLApkxgNP5FWLn7z+nDaCQHvpGwLRCbqGJIBRXctVXZnpunyZXpcs8glxRU++6U1vCq6FeNdC1fzQdTueNpb7ZEGIWbYGN0qMCeHkk08OCTcUXRwP6raUf52VYd0OqxIkhIidCjvvvHOYQPDNy6qgz7rPHEb5phYEEQQsCPRvkQUhJoT40XE9fOMb3whHyWr7Yd5KrclkXoVZ1QQdyyITLhYh/OEkFMIEzvZKrSrs1tUUOa56vpVhO070PE2OMp0T50E6XE5OBFfcDn0lCKo7+UA41putv+DJakzmbBurU2X+tTKTgn0eIdLCRdahu+++O5ytQAwVeOKScILwj0O25BLDHQM+uByIkykKQq4ai334vWpiRzaJK2J3Hp+4vPKSs1XdZ9ht7Y0FIU+xi3nzGwqL4DUiYDnOGQaq1bZAjbejlYEZT7p5HdNEWVR1IAoZwVAebw0KmUnJ7kdmLSL6cSsIl5gc9E2QBiEIKAyi9WOCUKS47YoM0ziZ+D772c9md91114wS5p4MwjiHf1X/pP5eNenwfMUdaOWwyy67ZBtuuGGwINgVruIR9Oy2+zaWY/u/xRJCgEUGpU3yFnY+yJoT36PtOlbhbp/PuGd8cIIeFhh2JdiVmMrmuaqs1SB+5qDj3T6Xv9FZyCTJgSCySgaluuad6KpFUd269NnFYHGWvIko4EbGIghJIM22YhK0DVDES8SvK7nTffPGRt7CNW+xZucrfld8C4sftjOSDIndSIqx4759DTqf0UV9sSAUEQRVlIkVFo4vmoNc8PUxMbCSjE96a7rHVkKSJyxVCiz1d/miKS/fFOZ1Aqo4HQ/rAZHX2vpXNCC6Giip7chTrk1dDPQX0fsoCWtBqJIJ1QGZIICRRCxYE9hCVXfPf912V1mCUBbUgYRLtAlyQEASvvJhW4JSJhuNGcoq0+Fhhx0WVr9YZ6TQpdRS7lkX07LyPA9lyk6PrbfeOrjeyNQICdSkWjT527qW9VsXbeKeuElxNxxzzDFhMlQMlZ1Q4rrXNbmPE0FQP9N+yR0LPlxdF154YYgxwqIVk+imFq26clhF/i2Rp6wlorRH4x7XF7uycCdCDJDdvm1jrMKm9xaEmH3SGTBzgqxwPXDqI4SBoCDtA09lZXSuTUyhSGcrwFUA1v1dkc34n3AfLLnkkkHREcWPCVrCqbz1RfefJIKAorAEwbatSGnb7xXlT/4ErEtf/vKXQ9AdK+AulH7ZKlSkBpPiAgssEE6PxAzOKkIJg/pIEKi3ovs1cbHjgTMSSH2uiPOiVXndcVC3PNY0CNZOO+0Ugrt0NK4sHDb5Ud17dznewZLVMLLI1j4CcSGx2oljt+5auZ8GgqCxIpLAziXIPa4HLC+80fMQVEX6N+3blOuoh92qaq1reXpE38nKgU7njTVUqcaVZ0NJzvqmt6twGRuCQCdICUAQFP1JhzLI5PtTmdSJIbYWxCamKgCb/E4dVW8YpYiKVmlaLZXdu2+CRp2bWhDKCEKeFSH+zlqMGIisRD7+8Y+HfeokuokJRwoBqepXTfIyfapO9C2Bc6QK33fffbNll112ZnuqnYiG2X+pYyEmPqx0mdhY9YIn0fmWdNW5b4p1QBhaiwB4svICT9L0svNDQZaUZ1IR8aoiblV9WiRrKdeljFUdEU6+D4gChFbELK77NBCEeBxqh01MVrVYqotJnX6z1oqqsSnLh+ojKwL3iEkedbdHQnPtOFkRekUQ4g5tqoCqOjhVcJo+v0oZpj4/1dSVer8uy3VJEGy9y5i8yoEbrid8mieccEKwJrAKUYyKCBrWo6LkS1VYidSJIHAv3AdsYcLfiMkXV5FMjvZ+tl/bktWq+tb93Zp/uZbJ7NRTT83OOeecEAsEUbAnLw46OWsXh3aj0FesxCBYZFTFTGutfbEVpq+YxjiqH9jlwMmsbNfF+im5VjvqTobj4mIYRDf2baxYXdS3utUd70XlnSCUIOkEIV3M+kIQGKg6gpnJn2hydsBcc801IZENyphXzOrTWzprSdxSRNMTNIe/kZUuya1YJUjJl21l6qtiseZVTf5gxkFq7HbApw6eWGhYwYss1G2PnRj5m3uRgpbtYBtttFE4jhtXTbw6i5/Td4JgyavkgoBQdo2AJa5SsNRKdhoJQtMxOIrr4rmhrtyPos5NnukEYcgEoUkn5V3TN4EcFkEQFinkTas3glvZ36+Md7fddluwKuDfbJIYCCXOFkUyIK6yyiqBHKy11lqBGMgnrk8UvaKZ7SSR93dbstHGfax/VQRBuy0w6xP3A564H1gFk5GRGCDrcqmqh2QYrLC2LLrooiHOgJ0JpEUmeFeHVVlzbtV46NPYENGK5VakEdkkwJZdDsR6YOni5QShSnpG+7sThNHiH56eMglUKYtBmtH0+YM8M/XaPilB9VXdGARNPDYGgURJKW1L7RvuJWXLJ5nb2HNNZk5IAoFQRJnzPdH7xLcwAbIiZnLCQsBOBAWVskWRgFImMwgCpIADlGT+xkRO3UQQyla6an9qnw+zXB5BiNsCTlhkWAmDKUGNHAwl8sVkF+fblysGQgBuYMk2ReEJpmCtZ8V+6jzZqMJ4mLjFz4oJQiwXIrHsyCJrqjLGOkEYZa9VP3sa3AtBP/Vpm2N1t4x/idSJrc+TR14vpFoQ4oGFcrcEId7mmNLjKWzemrJRvlgOmOBECuzpfNoVgTJXlkNcBgQf6jRFgmRTiExK/VWm7fvVeXZRn9rv8+qnCRBCpUOLMJVDtFgd261pXA+mYEm2QzAkABFCoDTTdkK1cQbxRFuGVd9wtJN9HDuhczI4SOv9739/sMS4BWFQyfXr20LACUJbSE75fUZJEOpAL4Uc+3plaeDTugQ0MdngMZnRU7fTptavbxNbar1lQRKxUjIwWVXi/euKJ9BkqVTZ4KqMknkxBankum84lhFYJwh1pMzLDhsBJwjDRnxCnzcuBEETvl3VacKyfu6yoLfUiapuV/dtYqtbf6188/BR2/SbMJeJXfENsjLkWS5Sce8bjmXmaCcITaTMrxkWAk4QhoX0hD9nXAiCuqFssunbBDOOohO7CmLcbYxBUV9MQz84QRhH6Z6eOjtBmJ6+7rSl40YQOgXDb944wDjPcjDJcDpBmOTeHf+2OUEY/z7sRQucIPSiG3pTiVR3QFmFp8GCoPTWClJkJ4hcNXU6cxISJdVpr5cdDgJjQxB0hoH1VQqi2HccRzwPB8q0p+B7VUpRe1KeDXij/gR22WC5vitLJwhp/e+lHAGLgNKEQxD23HPPsFV0UgmCJY0K9LV6TXocXYhlRYfZgUfRDppRSVPebht9p2BbPmMdXxawOqq2lJL0cdnmCLBMrDpCF2Fiu1ReAFAbq5cuOkuDIh4cIj/2lDe+K8vA10X9BrmnE4RB0PNrpxUBBWlOOkGQTo4/0XEiA3bxp5TbTLDaHVN0gN2wF08idWpLvHUVWRZZUNu0nXucdHogZuNCEMQuJTjsYYcwkKSFdLocD0p+eN56DVtwUpQcdaIN7Psm1zyJYRZaaKFwsqO2hclyME5s0wlCSu97GUdgVgQ0kYggoM8m0YIQEwObvEwkQNZVkpb99Kc/DdYUsp2i03XKog1uLbIsdC1jdkeOJn7aR14P9DrJv0igRvIvfifRmt2dU7ZDquu6173/2BAEZajD9I4Aff3rX8++853vhKNBOfaZxDf8hiDlbZWqC0xX5ambXAwIFEliyCS39tprh9zzHP3M93F63lENhlQcnCCkIuXlHIFZEWCyvPTSS7M99tgjLHgmkSDYVXW8wtbJtmTjPO+887Krrroqe/TRR0PiLel9fdprZYkdtjzJYmBzqdCHLPCwapN9lYRq6PLXvOY12aabbpq96EUvCr9XnSky7LZUPa/3BEHmJYSI1ymnnJIdffTRgRjIilDVyD7+blmkjqpGqN71rndlu+22WxAwysgE13fBaoMgnHzyyRmplttOQNTH/vc6OQJCoA2CwGmXX/7yl0Nmyj5aTtVWO6lroUT2yM9+9rPhPAoWe5YM9FVKYozzXN3KxMrBY6TR3nrrrYPrgcVf3gKwj23tPUEAtCeffDKcRX/cccdl1113XfgfcjDOr9hvJVMVRwavueaa2S677BLYJ+YpEYg+m6acIIyzNHrdR4nANBIE9AVpzjkZFL1+6623BldCX+PHYvkoIwhxWawKnD3CSa/odQ53w8owKgtIHVnvNUGAYZLTHZPTJz/5yezmm28OoEIObKBf7N+qA8CoysaTvQiCVs+YpD7xiU9km222WXA58LIr676tEpwgjEqS/LnjjsA0EQRZB1jkcdQ1Og53ggL/xqUv6xAEyspisM4662Qcasfpr5CEvltLe0MQbEQoQoLAcBLcNddck33sYx/LbrjhhmA6s0EhdlcA14wL+6SuedYAu10T18ICCyyQHXLIIRnmQ4Jf3IIwLurD6+kIpCMwTQQBVIgXO/7447MjjzwyuBQUWN63RU9ZD9YhCNp9oZwX6623XtDrr3zlKwNJ6POrNwQhnuABkzPn999//+yKK64IhCE+FS0V2L4SBytkeeYm2OXyyy+fHXbYYcE85RaE1B73co7A+CAwTQSBtn7rW98Kq+gHH3xwxnLQJTnoQv8PUl/0+Oabb5599KMfndnp0Fdp7RVBkOUA8DlLHgBhmrgZYgJRp4O6EJBhdCjMk8hXhOnQQw8N2yHV7jrtH0Zd3cUwDJT9GZOIwCQTBOV5kP6+8847Azm49tprgyVB29a77Ncu9H9T/atFHpaD/fbbL9tnn31mtkF2iUHTe/eKIEhgmBSvvvrqbLvttgv5DWSSnzQLQlWnaRfDS17ykuyAAw7Idtppp94KkxOEqt703x2BfAQmmSCoxWxBZ9siAYlHHXXUTG4Dq9O7ko8+EQQRJXT74osvHuIwsBI3JRxdYab79oogiE2S5+ADH/hA2PaivAaDANGFgAxSnzrXIjiwTuIQjjjiiJBYSYSpzn26LusEoWuE/f6TisCkEwS5h3/4wx9mBx54YFj86ZCqYejmLp4xyIQud/Icc8wRFn2f+tSngqWY75Usry+y3iuCAEB//etfsx/84AfBrP6rX/2qla0gXQjIsDtwnnnmycgT8LrXvS7kRohTdg67PvHznCCMugf8+eOKwCQTBPQCZIAXeRoOOuigkOhumLsWutD/gxIE8GDhR7ZFtnqSVZd69i1osVcEAdCIaj399NOz3Xff/Wn+9qYd3fS6PikcCAHBiiRRYsuMsnL1pY5OEPrSE16PcUNgkgmC+oKcB8RRkRAJXTFMndzFs9ogCNyD/Aif/vSnZ3aq9W3bY68IAgOF3Nucanbaaac9bZx30dHDVCaD1B9SwJGuxxxzTPaCF7zACcIwO86f5Qh0iMCkEwTcxJytsO+++2acOTGIHuywG2rdOo8gpLbLlsNiQPbcj3zkIxkuB7cgVHQDQYlbbrlliHKN2VRVB+R12iBMr5bEJBQWc65qR96tsBgsu+yy2VlnnZUtuOCCoUifdjS4BSFBALyII5CDwKQTBNp3/fXXZ7vuumt2xx13zIJAin5OKVMmWINen3dv5eThN2sRqWsdIcsieRGItyPXjVsQSnoScB9++OGwUib1ZvyqmlglCHG5LgSkiaZTvarakXdvXAwEKF5wwQXhEBB7jz60zwlCE4nwaxyBfySFG/Swpr6fxUA23J133jmc0Ghfw9BdXTyj7J51SAILPxImnX322eFEXycIJRqBgULyDE41vOuuu55miqqaWNVppCbu0+raNpmcDjp4ijpWtUnXIjgEslx++eXZkksu6QTBZxZHYEIQmAaCAAHacccdQ1rlVIIg/YiOxMXa1PzeJUHg3vQf6f+1ZbOOpZiF32KLLZZ9+9vfDnlunCBUEIT7778/e9Ob3pTdfffdyQRBkyxsjJOzyL7IqWZ6pU7CXesbiAHpRTlwyroIUp6LIHI+A1kll1pqqRlsrPB3MRBS6iYzGwlQjj322JAApUgJxJYPKQFyPfhpjqloe7lJQmDSCQJjnkj9HXbYIXvssceS9/xLNzCJvva1r83e+973NppAu9CL1krAycKcMMxR3XyvetvU+UXySlkRhEUWWaRR+7ocC70KUgTcn//854EgYEGIX0UTvb6HZa622mrZGWecEcw1fSMIJAsh+RPmpLoEAWYJQcCCAAnKs5B0MRBShc9dDKlIeTlHYFYEJp0gsM2RhY0sCHX1FAs/yAVZdZuusOs+s0xG43noJz/5SWgbeR7sK5UgkDDp3HPPDS7kvm1f7x1B4GzwN7/5zQMRBPlz+kgQttlmmxBoyAthT7VuiCDAxHExOEHwacYRmAwEJp0g0D4IApM8LobUyVrmexZ+XEsWxiYTaOrzUqUpjiUTQbjtttsaEQQWfBAEXAxN2pda7yblekcQmloQEAKY5uqrrx4m4D5aEDC9b7vttqF+ioJ1gvCPOAy5GDbccMNkBdJE4P0aR6BvCDhBKO4RdAOR/n0lCNSP8yWonyUI1gVRRlD4zQlCjRFpLQhxnu6yyTQmCJjj9WqbQdZozixbYHAxQBCwcKhOqedLTIoFwWJnSZKNQRhlf9XpWy/rCLSBwCgJQuoCJW5nnTEaWxCKMMu7pyUIuBiarLDr1DW1Py1uWBC23377sPPOBp6nYIted4KQinqWZU0JAkAjPGussUZ25plnBn+9E4QawA9YNDUGwQnCgED75ROHQBsEga3hX/rSl0Jwdp0JMWUSywO8zjOaEgTVDQsCPv6+uBjAo4ggMA/Z3QxVwsqcRQwCuxjIb9OEAFU9Y5Dfe+VioCFOEPK70y0Ig4i5X+sI9BcBJwj/6JuYdGgSZntjn1wMbRMEYsqIQYAgNA3C7Eq6J4YgwLwAd8011wy7GKbFghBbSeow+zaFyi0IbaLp95omBNogCCRKwoLwvOc9L3eyLcJzHCwIEAQsCGyhbrLC7kIntmlBcIJQY7Q3tSA4QZitBsqDF81j+yl5ENzFMDj2fofJQqANgrDxxhuH0xJFEOJx5gShO5khBoHt62xzZJGq0ytTyBfzlhOEGn3jBKGeiyG2INSAeqCiThAGgs8vdgRmEGiDINhUy0rWk6IbUiaxvK6qsyofNAahjxYEi8kgBAFCQeI7dzEkKgQnCPlAwTTnnnvukJFMiZLqDNJE+JOK5eVgQAnss88+4ThXdmukrGC0i4FrSSN90kknZb7NMakLvNAEIdAWQZCLoU8EgbrQviuvvDK4CR555JHCniuLQeibi6FNgrD00kuHIMX555/fYxCqxrUThGILAmeHf+ELX8gWXXTRWQSp6Sqgqi/KfreDmb8xqx1++OHZqaeeOhPFW3V/EQSunWeeebITTzwxEIS+BepUtcN/dwQGQaANgkAq4o9//OPZnHPOGcaPHUNlC4mmuiN1ccL9yf9y4403ZgceeGBItVz0zGkkCLSZw5pL5xc3AAAgAElEQVSwILDVOxXXQeStzrUepFgHrQZlbcKMQfIgcB+sCCuuuGI4FpSXHWhNB3qDJoVLrCCjjPj/nnvuyX7961+Hg0tS6pNHEN74xjfOKLe+DZamWPl1jkAZAm0QhBe84AXBsoiO0LjSM0dJEHg2Cewef/zxkB23TDdMK0FYddVVZwhC30aKE4SOe6RNgkBVSTvKoU92MKVMxm03Mx7MKDmUE2/ql1In7gG5oLwsCE4Q2u4pv1/fEWiDIGgs2SC5PhAELSakB+Pkd7Zvppkg4GKw2X/7IrNOEDruiTYJAgOICbjIcpAyKbfVXBuHwN96ttqbYka0BEGZFDmoSy/dK3ZntNWGPt5HuBUpyzp11r2m1WVTNh4ks0xYsoAVYWsnN9s/ebg2kdVBCIIde6zUlagnVReUTdhFeMQWiiqZVHktbKxOdIIwW4YFwQlClRT983ePQUgDSoooVgSpiiHtKcWlyggCV6USBCk4LAif//znMywIVnlbZVRXMQ3axlFdLwWKQlWG0DwzcR7GVvnG19g+G1XbRvVcsFTwLCQbS5zkVJiJKJS57mLSxQTLd5LNWF5T2jsoQYgtBXnWxaLx2FRflLktqtqcohusDpnkXQzg6AShSmLM704Q0sDqC0GgtrFCqlq5xasGFDY+VM5UJ0iRlRAvBVtJcU86QWASkw+ZyUwrLhEmvnvyySezP//5z9lf/vKXQhI2++yzZ8961rNCwBrK1ZqfhekgCj5NQtsvZeUqpf6auPkUQbDki+/++te/Bix529U05QieBT9ifuaYY44MXOVGU8IeSw6snMbjogyNtglC3rOcILQvj7rjINscnSDU7JdpIQhSIKmHNRXBKAWl35uuCGp20yykYBCCoOdCClZZZZWQl/zlL3958Mctu+yy2bzzzpuxewNFTU52TaB169v38sgB0d58QgA4FpegT7aFPfTQQ+F/AkB/+9vfBpLA5Fb0YjKba665AukiNz8YsvOF93zzzRe+ZwXNuwjPWK76gF8RQcgbA+AIRrz/9Kc/BQwfeOCBjNNiwfThhx/OnnjiifAbxIvgOSW4sW1FLpE7MGWbMZYu3gsvvHC2yCKLZAsssEAgDmBJWZn5+0AQUnRBSpm8vk8haGU6K+WeqptbEEY3+jwGoQPsiwYdimibbbZpdNyzraZdGXVQ/dq3lC9W7a5jQbCKVBYCZcVEMbASXmyxxbK11lorW3vttbOVV145e/7znz9LylUmA12LkteKuXZDOryAetEuPuUn5pOJic8HH3wwu+aaa8L7+uuv///tndvPJUXVxtt/wEs1JIQQ4pWE0w0SmPEAA0Q0AUHE0RE1nDKDSgA5GhIIJAYNpzFgjDqeAU8gAeUsKIQzBIVACCAX3pAIAeO9X37l94yLog/Vvbvft3vm2cnOfve7u6urnqpa66m1Vq2q/vnPf+5c1cqMHd0HXVWN1hatbPkEOxKzfOxjH6sOPvjgRMpQgCILKFS+s7KW9aHrWVP/Xmfyj8F4zKvoikHpv/zyy9WDDz6Y3i+++GL1+uuvJzJAWXV4Rl9+m/LScxiXlAN5hdRu3LgxjdF99903ZTNUrFCMU1D/5ZawVSwIXUQklxW5Yl8SQRh6WNPU49MWhKkRDuXvChYEE4T/NI6Y0pVHFKJaxfG5xx57VAcddFA6c4P9w6yIEdK6nlW4zMBzCM6LSp2/qRPKlxXsa6+9Vj399NNJiZGmFQWmlWxUZGNNP2EPGRD5YjWMYtuwYUNK+Qq+WB/AmuuH5L4fq76Uk88lfY/9DWb/+Mc/koXgkUceSSQLSwEWF1kRIGZ187LOX19Sf/CRSwgLAuVgrWE84lPmVFksYFjDlJtA5eb1EEE466yzErHh1Td4sE3xR/JjglDSu/2uMUHoh9dKV5sgdMM3lPV3lzzsij5Cp5QgqI1RyccgMhQcp5+RIOawww6rDjjggGRKZ/Wre2WJGNaq8e7SivXf//53chs89dRT1X333ZcsBZi5+T0qMMUJiCSMURMpCeGv7zxLZAGzOVaaI444IpEFdpaAZ2mfjVHPvIzcKiXCJdfBK6+8kkjBnXfemcjW22+/nUiN3DVqZ65w69rUZ15BEFSX3DIglwSWBYJuGZ+MVQ6QUw6T2E7qdtddd1UQBNqzCkHoakOfudrWn6uMiaY6NtVNLgZbEKaYYe1l2sUwAeZTWxDqVlYTNKO4yD5Cp49giSQh3hfdCAhXVm4f/ehHK7ZIsnrD1y6iIFNvvL9PHYpByC6k7tQTRYLS+tvf/lb95S9/qW655Zbq2WeffVc66q7V7dB6NClcES+REZEYPln1Cs/99tuv2nvvvROecQW8Fhg2jXPcBc8//3zC8/bbb6+eeeaZnaRQrgdZP/KcIV04dinY/H7hEO+jDnwXQYW4HnnkkYksgCffo7uJa0mh/vWvfz0dd78KQeiSDX3mqglC12j57++2IJThNMpVtiCUwdhXkJWVOuyqtVIWTbUTFrgaMO1u2rSpOuqoo6oPfvCD6RaZ9qOpVWVNVXcUrYjBH/7wh6QAIAmKQYiCPLohhvVA/7tKCBNBebgesNLwJle8ghq7cgf0r1H9HQocpL64DCADf/zjH6t77703ZebjRQxCm6tgaB/3mWNNeEZLDe6cD3/4w2mnDuOTWAXFNIggrGpBMEEYa+SVl2OCUI7VyleaIJRB2Ed4lZU4/KqhAnj4E995Z/RL8zdR+lgSPv3pT1ccg8t3bZ3Mnzlm3eXvxiQKGfj1r3+dTMfPPffczuySdSbzsXDoU04JQaCuxCtAvFBsnBjIKhiLjeI8+jxzyLXUgV0dWF1uuumm5JphRwJxHJAHuQ7WmyDQtnws8V2WGuqpYFriPHDjnHjiiSlYlLF59913V+ecc05yQfFaJQahTTbYgjBkFLbfY4IwPqaNJZoglIFtgvA/nGQhUJpnCWZWwFgUtm3blnzrEtZNpGAVskAdCJZDcf3iF7+obr755hR4yHfVBwJRt5WurMfHvSqaxtvaLaUGUcA0jkXhq1/9agrAGyM+IY7jOuXFlkSIwY033pj88//61792AqEsiPlcyL8P7de+c6ztOZHEyvqCKwxLwtatW6uXXnqpOvvss1eOQbAFYdx5UlKaCUIJSiNdY4LQDCQCSAIbgTNU8MUn9C0jBmRJGCHwUBYy9cqfPdKQKComrtTiDazmOcTm2GOPTRYFAvFYsaHw5CtuekAbNspyKJ83iXaeeOKJdGQ1vnFOrYuJjoTVWP1WBEqPi+ramrs+uIZ8AOC5ZcuWtAImX4XuBQvGQJ5boQnHOmuKVs7g+dBDD1U/+clPUhCijgnOx1ad22hKK1EXpDnhqSMr0e2ANYatprhvCLSM7ex6ln6nPDCP2ERCUodHF6nqenbb3JCcogzNMQV1Nu0m4dom64aDFLt6Y7rfHaQ4AbZNK49V8yCghLW1aiwlPIQgRMikRJQghu+lhzVNAH1tkQhPtu6xPfLMM89MqzYFkMVdEnUm4rY60lb6gZPqfve731U/+MEPkl8cq0EkAm2r5LXCIH9OiRm66Rpwwm1DdP7555+f8iqAb77nPyqwunZq7Og5chkQhIh7hqh1FCY7EnIF0md133eMr9InbZjVlUvdmNdslWSbqxJg9XExgDuEN+6G0TZVpZdepU1D7tXzRaTBpct6ZoLwviFQT3qPCcIE8E5FEChXEfpjEIQhgrNu5SETP0IBE7BWzxNA27vImEAHAYVi41z64447LvnS2aPepMhKTO+4Eb773e8mhcaql3u0Soqr27YVXe9GjXDDKgQh4oVF5oILLkgWGiWwKjXxiyBIGRJrQBDit771rRSEKGWpFXJUMLsKQQBLVshKmKV29SEI4PPe9743ZXqEaFCGSCoJneIrupZyot9nWLXNDSWuYu5B7qgDc4PYEZGYJrJUVydbEPr0zLjXmiCMi2cqbQqCwGRjlfbzn/88bZXKV+lDlH2+KiuBoo4gxPwEZAA899xz0x5/bUfMTdUlzxnzGrCR4qauCKxPfepT1Wc/+9mUJAjSoGtyAZVH62slhCuMgDniDf76178mQSiXQp2pt4mEjNnOPmWtShDASxYDFBPBi1/84hdTpkvGaa7g4tkFerY+UY4kNrrjjjuSS4FAvbjyFdGKY3xXIAhqj1bbMeiyD0GgH9i5c+WVV6axrNgMxoPGop7VRBD6jJ0uuUF99Fz1+8MPP5zyPJAyvOllC4ItCJ3j0DEI9RAx0VjxopRI55qvSKN5t42k5KWvSizyVSDlE7mP6ZmscFKo600S6trN6vekk05KwpWkNmw7k7AGF2VlFElA6JESmYh6LAZsX9QhP1rd5spvLLw7J87AC8Zwf2gMEbi4efPmFKFP7gTiFXgp14L85FJcYIfCePTRR6tf/epXKXaDZFIiBG3JjeZKEOrmXt0ca3JnDbEg8Ex26/zoRz9KY7hrTnf9XjKU+pTB3HjggQeqL3/5yymDaBP5MUEwQegceyYI9RAhZFmpoZTIGpgTglwwlQrQPhM91qztPkzFWDquuuqqFJXNtVpRlNarc6CMdAHWBAgXaZvB9QMf+EAylWOy5UVbUFq8IQcEIhI8h2887tFvsxqU4jZSk3oVMwZB0AMhAOBJ0B2psDlDgy19EAUdZIRlgDduKOI1cClgbeI7fnRZxuLfKn8JFoShBCF22hAyDUHYsWNHIghdr6Fzfug4Zp786U9/qk455ZQ0h5pkQBNBYEydfPLJKSZlvVN/12HrXQxdI27E300QmgkCkx8LAiu1usk0xsQv7cquZ5Ek6P77769++ctfppUh3+Wbr3NT1AnW0roMvU5uBcUpgC9WGkzkKDWEkU764wRFVrsQBa2K+U3R2VoVdRGgLty62pKbiuuu77Ji5MqoTgF31aOuDLBQ9kgwxdzN2QTUWacdghmWGU6lJLgTXONLxLdOSU5BELrwjP3Z1bdqR0kMhqwkEfshz9L95KiQBaGr71Ydg5TfpwzmBhaEL33pS+nMjCEEgXuJ9TFB6OrdcX93DMK4eLaWpl0MmKelnEqFjgQuSpdtZmNlsusz0ftCxWqQA3RYJZIsCN8yZmWCjnjhe2aFTtwCygKloRP3dBgO9dNWQu3iyBXg0DbE+6KVI/9/3fNyAV9KcOrqqvwNlEG7dZZALBPMdIQzRAYrB3n9ITIoX5Qu2PEGzzfffDN98j3fAqq6c19TsqG+fS3SJP+3CFP0R2vM5+QizoFIEIbUQZjF0xTjFjvqxZuxBJ5YjPjEYgSe0TLH+ITAvPXWWzuP2uZ/OvGSZwm/OJ9L53QkFE2r51IMIAilFoTSMtuuK51zYAHeHEgmF0PTboamMmVBWApBaDuKPceUNpPU7bbbbktbhuf2MkFYwx7JtzmWKhUxdlwMWBAgCPle8z5lxSaXTvShMCEcEKoQA/nrtQpgIvE7uPA3BxexSidpDIF/HL4DceAaFKBIQz4BV2lDHstR1846gV/3zBLFUHef2qV+Bh+i0dmxsv/++6fAP3z6ZDREifEb14hMiNxI+YEPlg6wBD/wZLfFCy+8kL6LNFDfeO8qOLaNqSY3xlhEr6nPIFUoI20j5ACqAw88MLk+SMONQEb5xOOu4zziXt7gydhl+yUWTk7hJG4CFwmWMe0YUKyFlGLpnMnHYMk4ystmFwkWBIjjkPtL66rrSsdKThCwIJTGIOhZ9BEWhO3bty/CgmCC0Hc09bh+V3AxNDU3EgQpgz6TmdPg2ghCD5jX9FIJCQmVKBBlStY1TC5lJESZcSgPPv8nn3wyWSNQfPweTdClwqpN+beV0UUQ+vRhbp3QShchCAHcZ599Un4BfPicAIjAl5UgBlDmK39ZBaiL0kpzDcQKzLDUsBLGksMWQvCUiV9+/z6R831Wl2tNEHge21eZL5ACDp6CZJGMCCwhWeCNQgeruPWuLZcD5TL2eGs7L9YxjpfmhE4IhEhwyZgouaZkotL3cjHMjSBQ/+hi6BOkqLkiC4IJQsloGPcaWxDGxbO1NAgCGeiI2B7yWjJBiIoRAct3nRAoS4IwkeCWKZLrWQ1jhuM0xBdffDG5I+I++boVbIkArlu95USmrq9ie7qeE90R8T7aicLiEB+2rrJKIsAPIQ82sq4oEU6sRzzRUv/PA0F5FveqfvytTIdYE37/+9+nN7tNIBHRXN7VpiHjV6RY945pQYjKBKJFMizmGhYDXCnx7Agw4NnKphnzVshVICxlFaDOGm/cq7gVxVSAJymh2cEDkZWrrA2nsTAWQZCLYaxy+5DAtmvBF9foV77ylRTcO8SCQJBiHUFYZXEwdAzn9+VBirYgjIVsTTlzsiAMnWhNgxZhcsYZZyRfIa+8/K7BvlSC0DVcckURFV78G6GMX52dHL/5zW+qxx9/PK2KpYAleHIcS/ux9LomRdfUTvnh4++sXDFzs3sC4YfVAIUVXzl5yZ+bK9qm7zke+g5euHVQbOCJkmNlTN2U9Kmr7/LfqXMkRPnvXWO89Hk8R64qysRiwFkRHH4EnmxbhXwx52KyoGh56lO3trEh1w71wP1AbgyOocZao3wOMRajro9L2910HXk9kCsEhjaNk1WfMfR+CAIncNIvzNdSgiDMZUG47rrrdm5DHqvvhrYp3te0i6GkbMaMYxBKkPr/a0wQmsHa3QhCLpTjVkJ8mQjhW2+9NQVBagVcJxxLFX/pdX0JQkwShEB4//vfn3IFkM2RT2IK1LZIEqYiCJFIaPVMAClYcqogeBKcN0SZd2E4pMw28QF2bKU88sgjk5n94IMPTkGHrOIUhBlP8pyCIMTxQD/ybHJl/Pa3v00uQeJp5LqQ9aKuTV3YNeEgCwLngBBsuVYnbZaKdTAhCRYWsiEEgViSaEHI3XRdhGgorqXtgyCQJIx5o4Dq0ntNEEqRWpEgyOSH7xYTPspUr6FCaejA6rIg/PjHP36HD720nrQJ/zF+1bogxZ5Qz+byJlNzxB9METQyActNwbHKuB4QxgSNgUt+IExpP5ZeN4QgKA8AxyaTwZHMgyg2KQ65DOpcF3UCMXZeXu++limVBaYEhv70pz9NeOLG6RuX0IXh0LmYD1aew8ry8MMPT3h+4hOfSKtn/q9xImxzTJvq2Fa3tnZpTFJHERD+R/wHBIGcIGzzw/qVJ9Rq68fSCQoRAoMbbrghkc1Yny7lWfqMVa6jPyDzIgil+Os6EYQ6C4L6bGjfrdIu3WuCMAaKBWUwILAgEJFLcFqdUGhj0SiHvfbaq7rooouSyVFbrhAUTFbYe9sE7fO8tuY0DVaerdPp6iZJl/CEILDC+9CHPrQzEK0A1tlfErGQiVrCVgJO2Oj36E5AkZHKlShufJ3KxidF0aW0BFDpdXVCN79XhFUKg3wAjOvPfOYzKWAuz5FfWoemMdJGEtrGVcRV2OInJrENh08Rra/DktTuLpy6lOnQAUm52t5LACfb5iBa7Eog8FCuDeZZ3OaYK+FSBVUqD3KCoLHL/6kLZxCgICFeEDCeLyJb+ox4Xewz/o/FBNflFVdcsZMc5InUumTL0D4puQ+LilwMzNU2GZ73Fd/BCssQq/T1bBcYasdLxJP+veaaa1J8hRYyJbiobcTJYL1jwbCe/VRX59kFKRIwxbG8EISulVHeIMDVufW531d+Qplyc+Y5Zse0CfE33ngjRZTXdsZ73tM4rpgk7H/HgkBA25j1LR3MU1/XV3BHywM+c7K03XzzzdUPf/jDlJlPW9wUpb+KYqsba0148Bwdfw0RgBCceuqp1dFHH50sW6V9N9QS0NXOOmUTCRn3gxkmUywJkFpWvyLcuVUhb89UBIE6spr8+Mc/Xp1++unVRz7ykZ0JrZp2H+Rkrg82peO9rf2yaBC0iLWLsYkyYHtkJMOlz4pEUq4rtsBCDk444YTUbzGwMm9/3fe+z+5zvdp/zz33VF/4whdSPom+BAF8sYwQvJtjLVIYx2+f+pVeKxIobCMphEDHA+r6jDH0FQSB4GtycuQEqLR+U103O4KAkIcg4MPLE2p0AV83eOJKUwlTBGYe9T0WyEPNXW33UXeUCxON43V3xZf6t48C1QpdExbfOaveb3/72ymDo/InlPR1LrCHKjrIAc8lSA6zKofUEEDH/7UCLum/tSYIsU4iCSg2ktxcfvnlafWrvonxIE0KsrQfS7Fgt8e2bduqz33ucylDo/DJd3m04dYlQ0rq0kUW4zMUkyByxQoal8N3vvOdRLritX3qBraML9xCxF/gtmT3hghCEwlca4IgxY1F6vOf/3xSpKUEoe669SII2g0kfQI5Q7lL/mgHUJ8+pH3IhEMOOSQFCZPnZMw5M2Qsv2ts/6dvi8Z4akMZgA/D5AAdTMV9Vib5wI9mOAl+sU1976uQSpveRRD6rpT1XFIsM5CIft8VX337IxeuYt8oNbaasYXvZz/7WTL9YbWRFUljpWvod/0ex5gICp+sdOgrVrnswUdwx+2GcfXR1o/rSRCoF8pGiYLYWopiw1TOXnYsNqsqmzhP8r6XewhBTOAduz22bt1abdy4MbkPuTfGb+SBiE0KsqtPh8yrLguC0k9TNm5Oxify7dprr01WGr7HlXAdLlK0+k0uCqyJkGGCXXO5prbUKdUh7Rx6D/XCBcg2R4Jh+xKEKfpsaFsipjH4OBLmPmVjESOOhp1EuIrm9pqVBYHJQ1ay8847r/re9773LgFUOlC6FHST8Mg7p/R572JdLa6CoQMAYYgPG6GCKWqOOcmHtm3s++g3JixmXCxRnAdBsiV8hQhjZSGUApSiiwq/qU+jeT1eT/+wO4EYGPqJiHoS87DKiMosF9pzWzHEdsfxz9xkCyQJgXA5IPBlVo2pjLlHilv3x3Ly9kaTqlbZIidkOiQg98QTT0xBiFgQlDtjLebcGONSK8x8bEFYCar9/ve/X915550paRVWJ65XQqxo9VI5GqvgQBwGshKLSr6Vs03GreWYo96MHdp6wQUXpLaWbnMcSx6P0Y9dZCuO9T74QhAgvriImuKSxqx/37JmRRAYOKxMbrzxxmRKZMI0sem2hpYShK6OnBNBQKkhDHizosoFTldb+g6MXeV6+hBh/MgjjyQzLCs2nVMAZgivuPqPgjhiIPcAYzK6rZjU9AcZEIkxOP7445OFJ65u66Lp1V9L6TelHYbwEASKJYHdQlgWZFFAsWl3iSwmOZ517RWB4lrKhxhAriAFkAMUIZg3keK5Y9gkR2gTeBHAB4nFhUNeCsUoCRc+4y4XsCUN9ze/+c2EkU7LZLzWPWs9LQjUByIOAbrssstSDEbfsxg0D4fK4zFlWROWQwkCh8NxxgQLCvrRMQgtvcWEEdskOpnseU2vtsGyKxIEfNgcdwoudXvltbIYczLsCmXJmoBygXwqNS5nExDvEg+Jipny6oStzkggYAolhiuBeJCDDjooBcwRLBZPNFRwpFaEdXjOXbnV1VmY0r7HHnssxcUQVIyFBgWHmxBLoF5tK0bGMjiyRZExzjkjJI3ijU8WgSn3QdOcnzuGJbIKWcdWSOJnwBIXGUSWMSvLAmSUSHeybRLbQlIoXnmCra55u9Z4Sa5jebrkkktSSuohc2GOBKEL67bfkSck9CJHBPIEuTK31+wsCAxeBAxbFVnxxXS6QwfI0PvWurPq2KlWYsccc0x15ZVXppVqncBc60m/1tis+rzc3I3wJesdgphPhBYmdAQyyk3nPSgYCVMgigwlxieCmr7guyY2z9D2OlklRDTWcxW3Knb5/cxJ2qNVPd8JuPv73/+e8MSiAPECT1w6ilcQFig0tiXyJvB2zz33TG/cM8IzXzGr/3bFcU7bFKeAdQaixW4u8ARXAhtpN1jtu+++acsf4w/8uU/Bck39PAfMqCvuvm984xtpC+2YVoH1lO+5Jbdroaa6ItexGJx22mkpABjyN4d+ysfQrAiCwMOKwGAi+QerPAmLoYJuPQdQnzrnA0RbatjeePHFF6dVQ34kbVREfZ7la/+X1AYFx5hDkUEMdLqksvExeRHCOiJYJIBxVaL4S8y+S+uPttW8XIUoO8iW3DgiCBBcSBW4IiSV9CvHMn/GHAXolP2mAFGRVY3DJjfNHC0skZgzFq6++uqKhEf5Do5VcVwvGd+XIIhYI0+Ir2ERrLTgdfJkVVxWvX92BEHbdBAq+Niuv/76JGS6hEcbEOs1ePp2Tt5GWQo++cljqssvvyIlhKlLFLK7Cc6+uDZdL1M5n3Fy6rssAnFrYhQI+YRu6ofdiSAIa5mVhWFOZON3/o5Y1gndrpXZWGNiLuVoDKrdTZiovm2/r6d8iO2grmQdPPvss5M7JRLHVXGfk4xvw1u/sRPnnHPOqc4///ydVse+rqJVMSu5f1YEgQrDmqUEOZIWVwP72WVOG2KamtPgaeuUOgsC25guvfTSatOmTTtPn8uFwXoKgJJBNudrIhkQEYj/i2OnTcnNuY1T1K1tTkX8wKwuSDOeHClcNY5NEP5r3YrzukuGzVUG5ASBfmf78YUXXphcKPnvQ8dqFz5Dyx1yX+wLkV+Vox1UyHN2LrAdOu7eGfK8Ke+ZHUGIjaXT8Vfht4oHYeAPbjv0JAdsToOnqzNpm1wqbGck8nfz5s3JvD1HE1RXe5b+ezSRxrbkymzp7Ryz/vl8a1NeOQEbsx4uax4IxCBVnZPCbgYWPsSpYCFm9ayTL8eu9VrL/zje5SbWllWswuT0YBu/ztQZu71jljdbgiDzLy4HzljHd0WEL4OoKSq6CZi1HiCrdBAMk0FFABxbGtn+QgINuRvmulJYpc1zvreOIGjFa8JW33MmCHMe0WtfN1kJomWIUx3Z1bB9+/aKk1l55YesjVXTtZb/dZZgdBZynERfWMUhCVw393w2syUIcXAALvvYIQn4rhRpXtrxpdeNNSCHlsNgwTeFW+HMM89M++qVNc7EYCiqq92XEwRbDrrxNEHoxmh3uiIfD3IvEcSKu7Gfg60AAAZwSURBVIFTKF966aVkTZjitdbyP3cxQAywDB911FHV1772teRWUKDzHOMO3mEpnVOq5brBIWsBlgO2T2GaIiaBg0/IlNf1WuvBofo0JbyI/qaYcIfdCSTYIWXqli1bkvmJurftoe9qu38fB4FIEkwQyjAtdR2UXlf2VF81RwRiH8e5pAP1yEmyY8eO6s9//nP1yiuvpJ1Eq+5cizishw6QlZEdaJy+CzngCAESgCnWaW5JkerGziIsCFRcipXBw4DiAJknnnjiHZnctC1oykmSB53wrBi8FhVInQma/+lwGbZ6sZ+ZQUPyk0MPPTR9kl2LcnJXSs5Mp2yny343AlZmHhVGYDUEcrKg77gcyCQJSWDxR2pmtkKSR0M725R4rKsGXcGuXff3/T26UFjQYfUlpwc5K7AGb9iwodp///2T1UAu5L7PWK/rF0MQRBKUGITsYq+++mrKk0CSGwYYwS686xjrWADnBEFBKPFTpCF+5owWiwGZ4kgMwyen0/E/LCXKHmeCMFavjVOOCcI4OLqU3ReBOoKg/yFbcR+TVVJZTsnMiUwnSFtJ87rQYxEZZefUFgTKp27kqcCVQHC5En+RVA0Xw1LjlhZFEMTUlF1QjFIRonxqYEwpzOtMzpEMRNNRHjtA/WCZuka7E/IAHXxTJghdomBtf59yTK1tS/w0I7A+CNQt3iTnYr4RnemheIW6XCR1LaD8XA+sBUGQtZh6KqFV1FfUVRlI48mj69ML5U9dFEFQs9ThUYE2BfFNYZavG3B9BmHdPu+c/OQn4uXtc9Bi+SD3lUbACMwPAcm8aEGQhTa6Z/vG/awqn8dCKpfhatOSZPeiCUKXUp6CHIw1eErKaWvfkgZZSVt9jREwArsXApEgtC2A+si6Lp2w3gj3act61zVZxee+i6HJjNQXvKV1DO0zQejby77eCBiBpSBQqsxLZXdpeeuNT2l71rueJghz6IGWOpggzLyDXD0jYAQGI1Cq0EsVaml5gys8wo2lbRnhUaMUsUgLglreNSCW1hmj9KgLMQJGwAgsCIFcjltuz6fzTBDm0xeuiREwAkZgt0PABGG+Xb5ogjBfWF0zI2AEjIARMALLRsAEYdn959obASNgBIyAEZgEAROESWB1oUbACBgBI2AElo2ACcKy+8+1NwJGwAgYASMwCQImCJPA6kKNgBEwAkbACCwbAROEZfefa28EjIARMAJGYBIETBAmgdWFGgEjYASMgBFYNgImCMvuP9feCBgBI2AEjMAkCJggTAKrCzUCRsAIGAEjsGwETBCW3X+uvREwAkbACBiBSRAwQZgEVhdqBIyAETACRmDZCJggLLv/XHsjYASMgBEwApMgYIIwCawu1AgYASNgBIzAshEwQVh2/7n2RsAIGAEjYAQmQcAEYRJYXagRMAJGwAgYgWUjYIKw7P5z7Y2AETACRsAITIKACcIksLpQI2AEjIARMALLRsAEYdn959obASNgBIyAEZgEAROESWB1oUbACBgBI2AElo2ACcKy+8+1NwJGwAgYASMwCQImCJPA6kKNgBEwAkbACCwbAROEZfefa28EjIARMAJGYBIETBAmgdWFGgEjYASMgBFYNgImCMvuP9feCBgBI2AEjMAkCJggTAKrCzUCRsAIGAEjsGwETBCW3X+uvREwAkbACBiBSRAwQZgEVhdqBIyAETACRmDZCJggLLv/XHsjYASMgBEwApMgYIIwCawu1AgYASNgBIzAshEwQVh2/7n2RsAIGAEjYAQmQcAEYRJYXagRMAJGwAgYgWUjYIKw7P5z7Y2AETACRsAITIKACcIksLpQI2AEjIARMALLRsAEYdn959obASNgBIyAEZgEAROESWB1oUbACBgBI2AElo2ACcKy+8+1NwJGwAgYASMwCQImCJPA6kKNgBEwAkbACCwbAROEZfefa28EjIARMAJGYBIETBAmgdWFGgEjYASMgBFYNgImCMvuP9feCBgBI2AEjMAkCJggTAKrCzUCRsAIGAEjsGwETBCW3X+uvREwAkbACBiBSRAwQZgEVhdqBIyAETACRmDZCJggLLv/XHsjYASMgBEwApMgYIIwCawu1AgYASNgBIzAshEwQVh2/7n2RsAIGAEjYAQmQcAEYRJYXagRMAJGwAgYgWUjYIKw7P5z7Y2AETACRsAITIKACcIksLpQI2AEjIARMALLRuD/AHx7RfqJdpRRAAAAAElFTkSuQmCC;" vertex="1" parent="1">
          <mxGeometry x="855.28" y="275" width="99.45" height="70" as="geometry" />
        </mxCell>
        <mxCell id="UhObj9y9h33Bc8mLhxrg-64" value="Streaming Result" style="text;html=1;align=center;verticalAlign=middle;resizable=0;points=[];autosize=1;strokeColor=none;fillColor=none;" vertex="1" parent="1">
          <mxGeometry x="850" y="345" width="110" height="20" as="geometry" />
        </mxCell>
        <mxCell id="UhObj9y9h33Bc8mLhxrg-65" value="" style="endArrow=classic;html=1;rounded=0;shadow=0;strokeColor=#000000;fillColor=#000000;shape=flexArrow;endWidth=12.040816326530614;endSize=3.5714285714285716;width=2.142857142857143;" edge="1" parent="1">
          <mxGeometry width="50" height="50" relative="1" as="geometry">
            <mxPoint x="840" y="304" as="sourcePoint" />
            <mxPoint x="732" y="304.47" as="targetPoint" />
          </mxGeometry>
        </mxCell>
        <mxCell id="UhObj9y9h33Bc8mLhxrg-66" value="" style="endArrow=classic;html=1;rounded=0;shadow=0;strokeColor=#000000;fillColor=#000000;shape=flexArrow;endWidth=12.040816326530614;endSize=3.5714285714285716;width=2.142857142857143;" edge="1" parent="1">
          <mxGeometry width="50" height="50" relative="1" as="geometry">
            <mxPoint x="210" y="159.47000000000023" as="sourcePoint" />
            <mxPoint x="370" y="159.47000000000023" as="targetPoint" />
          </mxGeometry>
        </mxCell>
        <mxCell id="UhObj9y9h33Bc8mLhxrg-67" value="Load Balance" style="text;html=1;align=center;verticalAlign=middle;resizable=0;points=[];autosize=1;strokeColor=none;fillColor=none;" vertex="1" parent="1">
          <mxGeometry x="250" y="460" width="90" height="20" as="geometry" />
        </mxCell>
        <mxCell id="UhObj9y9h33Bc8mLhxrg-68" value="" style="endArrow=classic;html=1;rounded=0;shadow=0;strokeColor=#000000;fillColor=#000000;shape=flexArrow;endWidth=12.040816326530614;endSize=3.5714285714285716;width=2.142857142857143;" edge="1" parent="1">
          <mxGeometry width="50" height="50" relative="1" as="geometry">
            <mxPoint x="480" y="160" as="sourcePoint" />
            <mxPoint x="630" y="160" as="targetPoint" />
          </mxGeometry>
        </mxCell>
        <mxCell id="UhObj9y9h33Bc8mLhxrg-69" value="Web Server" style="sketch=0;pointerEvents=1;shadow=0;dashed=0;html=1;strokeColor=none;labelPosition=center;verticalLabelPosition=bottom;verticalAlign=top;align=center;fillColor=#080808;shape=mxgraph.mscae.oms.dashboard;direction=east;" vertex="1" parent="1">
          <mxGeometry x="400" y="135" width="60" height="50" as="geometry" />
        </mxCell>
        <mxCell id="UhObj9y9h33Bc8mLhxrg-72" value="Searching Tweets" style="text;html=1;align=center;verticalAlign=middle;resizable=0;points=[];autosize=1;strokeColor=none;fillColor=none;" vertex="1" parent="1">
          <mxGeometry x="227" y="130" width="110" height="20" as="geometry" />
        </mxCell>
        <mxCell id="UhObj9y9h33Bc8mLhxrg-74" value="Trending Publish" style="rounded=1;whiteSpace=wrap;html=1;shadow=0;fillColor=#FFFFFF;" vertex="1" parent="1">
          <mxGeometry x="510" y="295" width="100" height="20" as="geometry" />
        </mxCell>
        <mxCell id="UhObj9y9h33Bc8mLhxrg-76" value="" style="endArrow=none;html=1;rounded=0;shadow=0;strokeColor=#000000;fillColor=#000000;shape=flexArrow;endWidth=12.040816326530614;endSize=3.5714285714285716;width=2.142857142857143;" edge="1" parent="1" target="UhObj9y9h33Bc8mLhxrg-74">
          <mxGeometry width="50" height="50" relative="1" as="geometry">
            <mxPoint x="630" y="304.47000000000025" as="sourcePoint" />
            <mxPoint x="480" y="304.47000000000025" as="targetPoint" />
          </mxGeometry>
        </mxCell>
      </root>
    </mxGraphModel>
  </diagram>
</mxfile>
